<?xml version="1.0" encoding="utf-8"?>
<!-- Generator: Adobe Illustrator 27.5.0, SVG Export Plug-In . SVG Version: 6.00 Build 0)  -->
<svg version="1.1" xmlns="http://www.w3.org/2000/svg" xmlns:xlink="http://www.w3.org/1999/xlink" x="0px" y="0px"
	 viewBox="0 0 3710 3710" style="enable-background:new 0 0 3710 3710;" xml:space="preserve">
<g id="Background">
	<g>
		<g>
			<rect style="fill:#FFFFFF;" width="3710" height="3710"/>
		</g>
	</g>
</g>
<g id="Illustration">
	<g>
		<linearGradient id="SVGID_1_" gradientUnits="userSpaceOnUse" x1="3456.5537" y1="3250.7322" x2="1405.9728" y2="1456.4752">
			<stop  offset="0" style="stop-color:#DAE3FE"/>
			<stop  offset="1" style="stop-color:#E9EFFD"/>
		</linearGradient>
		<path style="fill:url(#SVGID_1_);" d="M3111.49,2317.094c-265.757,621.675-973.671,969.942-1587.576,875.998
			c-99.895-15.287-373.759-60.823-616.228-275.646c-466.769-413.552-566.591-1232.439-190.063-1809.528
			c274.046-420.02,765.303-658.114,1232.092-646.205c100.546,2.565,485.883,18.376,824.526,295.796
			c49.74,40.748,159.447,137.575,258.319,291.185C3264.73,1409.399,3284.686,1911.941,3111.49,2317.094z"/>
		<g>
			<path style="fill:#BDD0FB;" d="M880.099,475.203C792.05,719.055,337.61,2159.05,1612.281,2828.211
				c0,0,543.214-870.988-694.71-2359.647C906.742,455.542,885.851,459.272,880.099,475.203z"/>
			<path style="fill:#FFFFFF;" d="M951.486,724.208c-1.523,86.034,3.381,171.372,10.422,256.711
				c7.322,85.271,17.952,170.243,31.297,254.78c13.382,84.534,29.617,168.624,48.531,252.128
				c19.194,83.439,41.212,166.228,65.745,248.286c24.371,82.122,52.672,163.034,82.638,243.3
				c15.562,39.919,30.908,79.935,47.964,119.259c16.166,39.703,34.391,78.508,52.003,117.592
				c72.589,155.348,157.133,305.197,252.498,447.935c5.335,7.986,16.134,10.134,24.122,4.796
				c7.985-5.334,10.134-16.133,4.798-24.119l-0.094-0.142l-0.072-0.105c-95.691-140.248-180.869-287.793-254.338-441.075
				c-17.83-38.573-36.287-76.874-52.7-116.093c-17.302-38.838-32.91-78.387-48.742-117.85
				c-30.514-79.357-59.406-159.418-84.408-240.752c-25.164-81.27-47.852-163.327-67.744-246.089
				c-19.619-82.822-36.58-166.291-50.715-250.249c-14.095-83.958-25.502-168.396-33.616-253.153
				c-7.835-84.689-13.534-169.998-12.863-254.715l0.001-0.254c0.032-4.069-3.239-7.39-7.306-7.423
				C954.867,716.94,951.561,720.173,951.486,724.208z"/>
		</g>
		<g>
			<g>
				<path style="fill:#91B3FA;" d="M1198.553,2940.44c-9.254,28.59-44.699,38.437-67.63,19.016
					c-126.528-107.161-456.867-442.493-445.254-1014.773c9.807-483.264-30.8-746.242-57.507-864.347
					c-5.647-24.974,23.87-42.642,43.246-25.903C885.174,1239.113,1533.883,1904.474,1198.553,2940.44z"/>
				<path style="fill:#FFFFFF;" d="M1157.897,2942.079c-0.606,0.433-1.261,0.813-1.965,1.132c-5.896,2.686-12.854,0.084-15.54-5.812
					c-3.045-6.685-304.665-676.153-321.384-1348.716c-0.159-6.472,4.959-11.854,11.439-12.022
					c6.478-0.159,11.859,4.96,12.022,11.439c16.595,667.667,316.251,1332.931,319.275,1339.572
					C1164.112,2932.865,1162.375,2938.882,1157.897,2942.079z"/>
			</g>
		</g>
		<g>
			<g>
				<path style="fill:#91B3FA;" d="M1106.128,2926.71c0,0-35.495-246.099,241.367-265.03
					c276.861-18.931,1628.041,28.396,1628.041,28.396s-56.792,274.495,0,392.812c-260.297-2.366-1765.289,0-1765.289,0
					S1097.299,3028.658,1106.128,2926.71z"/>
				
					<linearGradient id="SVGID_00000008844934898331482050000015018217957843772601_" gradientUnits="userSpaceOnUse" x1="1993.8071" y1="2016.3059" x2="2096.6882" y2="3478.2964">
					<stop  offset="0" style="stop-color:#09005D"/>
					<stop  offset="1" style="stop-color:#1A0F91"/>
				</linearGradient>
				<path style="fill:url(#SVGID_00000008844934898331482050000015018217957843772601_);" d="M3001.565,3056.085
					c-222.014,0-1671.717,0-1703.764,0c-34.707,0-167.221,7.398-164.066-140.891c1.517-71.276,39.477-117.238,78.499-145.074
					c36.171-25.805,79.535-40.415,123.967-40.415c227.344,0,1392.447,0,1551.78,0c176.687,0,124.627-150.019,124.627-150.019
					l-1.578,1.135l-1659.591-1.797c0,0-246.099,145.87-272.343,294.463c-6.202,35.126-5.187,68.023-0.019,95.721
					c15.021,80.498,85.45,140.164,167.337,140.164h1755.151c15.683,0,28.396-10.961,28.396-26.649
					C3029.961,3067.04,3017.248,3056.085,3001.565,3056.085z"/>
				
					<linearGradient id="SVGID_00000085210617816663127410000002029736252158945204_" gradientUnits="userSpaceOnUse" x1="1951.0172" y1="-1303.5653" x2="2309.5913" y2="3791.9485">
					<stop  offset="0" style="stop-color:#09005D"/>
					<stop  offset="1" style="stop-color:#1A0F91"/>
				</linearGradient>
				<path style="fill:url(#SVGID_00000085210617816663127410000002029736252158945204_);" d="M2901.334,544.956H1314.106v2141.454
					h1587.228c60.583,0,104.62-45.443,104.62-106.03V651.138C3005.954,590.552,2961.917,544.956,2901.334,544.956z"/>
				
					<linearGradient id="SVGID_00000170998604820461285010000013106302410894866064_" gradientUnits="userSpaceOnUse" x1="1079.0956" y1="1707.4095" x2="1316.7321" y2="1707.4095">
					<stop  offset="0" style="stop-color:#09005D"/>
					<stop  offset="1" style="stop-color:#1A0F91"/>
				</linearGradient>
				<path style="fill:url(#SVGID_00000170998604820461285010000013106302410894866064_);" d="M1316.732,541.441
					c0,0-255.565,50.911-236.634,247.892c18.931,196.98-1.002,2084.045-1.002,2084.045s76.725-183.301,237.636-183.301
					C1316.732,2283.066,1316.732,541.441,1316.732,541.441z"/>
				
					<linearGradient id="SVGID_00000090985308234523240690000001583427000717165752_" gradientUnits="userSpaceOnUse" x1="1560.556" y1="2768.0044" x2="2802.7991" y2="2768.0044">
					<stop  offset="0" style="stop-color:#DAE3FE"/>
					<stop  offset="1" style="stop-color:#E9EFFD"/>
				</linearGradient>
				<path style="fill:url(#SVGID_00000090985308234523240690000001583427000717165752_);" d="M2802.799,2769.45
					c0,1.96-1.589,3.55-3.55,3.55H1564.106c-1.96,0-3.55-1.589-3.55-3.55v-2.892c0-1.96,1.589-3.55,3.55-3.55H2799.25
					c1.96,0,3.55,1.589,3.55,3.55V2769.45z"/>
				
					<linearGradient id="SVGID_00000135677962851874178040000001959911828826709656_" gradientUnits="userSpaceOnUse" x1="1380.7137" y1="2887.8992" x2="2829.4597" y2="2887.8992">
					<stop  offset="0" style="stop-color:#DAE3FE"/>
					<stop  offset="1" style="stop-color:#E9EFFD"/>
				</linearGradient>
				<path style="fill:url(#SVGID_00000135677962851874178040000001959911828826709656_);" d="M2829.442,2890.117
					c0,1.96,0.336,2.778-1.94,2.778H1386.959c-2.278,0-6.246-0.817-6.246-2.778v-5.249c0-1.96,3.968-1.965,6.246-1.965h1440.543
					c2.277,0,1.94,0.005,1.94,1.965V2890.117z"/>
				
					<linearGradient id="SVGID_00000179643039437217761990000014293053060480200847_" gradientUnits="userSpaceOnUse" x1="1940.2227" y1="2992.8071" x2="2856.0857" y2="2992.8071">
					<stop  offset="0" style="stop-color:#DAE3FE"/>
					<stop  offset="1" style="stop-color:#E9EFFD"/>
				</linearGradient>
				<path style="fill:url(#SVGID_00000179643039437217761990000014293053060480200847_);" d="M2856.086,2992.807
					c0,3.678-2.982,6.661-6.661,6.661h-902.541c-3.679,0-6.661-2.982-6.661-6.661l0,0c0-3.679,2.982-6.661,6.661-6.661h902.541
					C2853.104,2986.146,2856.086,2989.128,2856.086,2992.807L2856.086,2992.807z"/>
				
					<linearGradient id="SVGID_00000116925220856310454220000017235538961056274051_" gradientUnits="userSpaceOnUse" x1="2166.9668" y1="-1240.1608" x2="2146.9851" y2="-261.0203">
					<stop  offset="0" style="stop-color:#FF928E"/>
					<stop  offset="1" style="stop-color:#FE7062"/>
				</linearGradient>
				<path style="fill:url(#SVGID_00000116925220856310454220000017235538961056274051_);" d="M2405.248,1074.491h-218.574V780.067
					c0-15.682-11.842-28.626-27.525-28.626h-75.723c-15.683,0-29.969,12.945-29.969,28.626v294.423h-225.596
					c-15.683,0-27.515,11.717-27.515,27.399v75.723c0,15.682,11.833,23.434,27.515,23.434h225.596v837.913
					c0,15.682,14.286,31.324,29.969,31.324h75.723c15.683,0,27.525-15.643,27.525-31.324v-837.913h218.574
					c15.683,0,31.206-7.753,31.206-23.434v-75.723C2436.454,1086.208,2420.93,1074.491,2405.248,1074.491z"/>
			</g>
			<g>
				<g>
					<path style="fill:#BDD0FB;" d="M1374.053,2460.402c-3.099,0-6.661-2.51-6.661-5.611v-791.151c0-3.101,3.562-5.611,6.661-5.611
						c3.098,0,6.661,2.51,6.661,5.611v791.151C1380.714,2457.892,1377.151,2460.402,1374.053,2460.402z"/>
				</g>
				<g>
					<path style="fill:#BDD0FB;" d="M1374.053,1545.81c-3.099,0-6.661-2.51-6.661-5.611v-381.548c0-3.101,3.562-5.611,6.661-5.611
						c3.098,0,6.661,2.51,6.661,5.611v381.548C1380.714,1543.3,1377.151,1545.81,1374.053,1545.81z"/>
				</g>
				<g>
					<path style="fill:#BDD0FB;" d="M1374.053,827.602c-3.099,0-6.661-2.51-6.661-5.611V608.773c0-3.101,3.562-5.611,6.661-5.611
						c3.098,0,6.661,2.51,6.661,5.611v213.218C1380.714,825.092,1377.151,827.602,1374.053,827.602z"/>
				</g>
			</g>
		</g>
		<g>
			<g>
				
					<linearGradient id="SVGID_00000137108671806337668910000013992168384888406683_" gradientUnits="userSpaceOnUse" x1="2600.5579" y1="1867.9309" x2="3364.9944" y2="2534.2302">
					<stop  offset="0" style="stop-color:#4F52FF"/>
					<stop  offset="1" style="stop-color:#4042E2"/>
				</linearGradient>
				<path style="fill:url(#SVGID_00000137108671806337668910000013992168384888406683_);" d="M2650.112,1921.251
					c0,0,47.367-41.261,113.78-1.557c21.715,12.982,77.753,12.516,102.883,52.97c12.974,20.887,37.561,31.059,61.189,24.251
					c58.846-16.954,156.718-27.526,214.33,61.634c43.975,68.055,19.6,112.816-14.951,140.368
					c-25.377,20.236-31.541,56.855-12.41,83.075c18.349,25.149,24.864,61.01-11.449,108.513
					c-81.373,106.452-277.138-35.198-277.138-35.198l-176.234-323.792V1921.251z"/>
				<g>
					
						<linearGradient id="SVGID_00000055700651027543817500000016079608854148076467_" gradientUnits="userSpaceOnUse" x1="2820.3447" y1="2978.4128" x2="2851.1296" y2="2978.4128">
						<stop  offset="0" style="stop-color:#4F52FF"/>
						<stop  offset="1" style="stop-color:#4042E2"/>
					</linearGradient>
					
						<rect x="2820.345" y="2811.952" style="fill:url(#SVGID_00000055700651027543817500000016079608854148076467_);" width="30.785" height="332.921"/>
					
						<linearGradient id="SVGID_00000158010231439272938520000004621383995910103486_" gradientUnits="userSpaceOnUse" x1="2700.9221" y1="3141.271" x2="2970.553" y2="3141.271">
						<stop  offset="0" style="stop-color:#4F52FF"/>
						<stop  offset="1" style="stop-color:#4042E2"/>
					</linearGradient>
					<path style="fill:url(#SVGID_00000158010231439272938520000004621383995910103486_);" d="M2970.553,3151.291h-269.631v-16.294
						c0-2.068,1.677-3.745,3.745-3.745h262.141c2.068,0,3.745,1.677,3.745,3.745V3151.291z"/>
					
						<linearGradient id="SVGID_00000059312036904788021390000016123104084148781196_" gradientUnits="userSpaceOnUse" x1="2671.5608" y1="2785.4302" x2="3010.5693" y2="2785.4302">
						<stop  offset="0" style="stop-color:#4F52FF"/>
						<stop  offset="1" style="stop-color:#4042E2"/>
					</linearGradient>
					<path style="fill:url(#SVGID_00000059312036904788021390000016123104084148781196_);" d="M3010.569,2800.398
						c0,18.208-14.898,33.106-33.105,33.106h-272.797c-18.208,0-33.106-14.898-33.106-33.106v-29.935
						c0-18.209,14.897-33.106,33.106-33.106h272.797c18.207,0,33.105,14.898,33.105,33.106V2800.398z"/>
				</g>
				<g>
					
						<linearGradient id="SVGID_00000161606382447361574660000012668787500671711146_" gradientUnits="userSpaceOnUse" x1="2317.5261" y1="3027.3176" x2="2868.4998" y2="2719.6904">
						<stop  offset="0" style="stop-color:#FEBBBA"/>
						<stop  offset="1" style="stop-color:#FF928E"/>
					</linearGradient>
					<path style="fill:url(#SVGID_00000161606382447361574660000012668787500671711146_);" d="M2605.025,2589.971
						c0,0-45.745,7.092-97.177,41.473c-8.094,5.411-12.534,14.844-11.315,24.503c6.159,48.783,31.481,206.677,114.98,360.894
						c4.403,8.132,5.668,17.598,3.726,26.639l-14.506,67.51l-26.903,25.226h69.294l46.137-124.857l-19.728-6.238
						c-15.296-4.837-25.791-18.906-26.068-34.947l-2.314-133.937c1.974-59.672-36.589-100.844-36.589-100.844l110.664-5.384
						L2605.025,2589.971z"/>
					
						<linearGradient id="SVGID_00000156558331760072929920000001095564757674269616_" gradientUnits="userSpaceOnUse" x1="2630.2649" y1="3005.7236" x2="2598.0693" y2="3499.3867">
						<stop  offset="0" style="stop-color:#4F52FF"/>
						<stop  offset="1" style="stop-color:#4042E2"/>
					</linearGradient>
					<path style="fill:url(#SVGID_00000156558331760072929920000001095564757674269616_);" d="M2546.771,3148.395
						c-6.311,8.26,67.921,19.159,105.425,1.094c0,0,51.989-90.453,51.989-137.025c0,0-4.126-9.495-34.653-7.342
						c0,0-17.456,107.101-35.888,119.097c-18.432,11.998-51.568,1.214-51.568,1.214S2556.083,3136.209,2546.771,3148.395z"/>
					
						<linearGradient id="SVGID_00000091724067826593588890000008200804906778430627_" gradientUnits="userSpaceOnUse" x1="2525.9773" y1="3005.6892" x2="2835.8997" y2="3483.1995">
						<stop  offset="0" style="stop-color:#FEBBBA"/>
						<stop  offset="1" style="stop-color:#FF928E"/>
					</linearGradient>
					<path style="fill:url(#SVGID_00000091724067826593588890000008200804906778430627_);" d="M2701.223,2737.357
						c-0.589-1.019-119.147-14.256-119.147-14.256s3.88,36.049-8.247,85.672c-12.125,49.624-186.197,264.62-186.197,264.62
						l18.252,57.859c-56.432,19.658-111.943,22.8-166.565,10.021l113.114-67.88c0,0,105.861-360.755,170.703-425.113l118.842-41.115
						L2701.223,2737.357z"/>
					
						<linearGradient id="SVGID_00000161611776681091303860000001384992831875888534_" gradientUnits="userSpaceOnUse" x1="2685.1729" y1="3012.6841" x2="2768.1541" y2="2706.6904">
						<stop  offset="0" style="stop-color:#FF928E"/>
						<stop  offset="1" style="stop-color:#FE7062"/>
					</linearGradient>
					<path style="fill:url(#SVGID_00000161611776681091303860000001384992831875888534_);" d="M2967.109,2527.446
						c0,0,68.308,101.599,73.913,147.944c5.605,46.345-18.712,65.177-90.383,68.281c-71.673,3.105-263.007,3.055-263.007,3.055
						l-163.302-139.563c0,0,119.007-42.465,149.948-54.472C2705.219,2540.684,2967.109,2527.446,2967.109,2527.446z"/>
					
						<linearGradient id="SVGID_00000010277239183235406040000002640888048915707020_" gradientUnits="userSpaceOnUse" x1="2319.5823" y1="2985.4619" x2="2287.387" y2="3479.1248">
						<stop  offset="0" style="stop-color:#4F52FF"/>
						<stop  offset="1" style="stop-color:#4042E2"/>
					</linearGradient>
					<path style="fill:url(#SVGID_00000010277239183235406040000002640888048915707020_);" d="M2398.987,3111.767
						c0,0,19.65,19.032,6.376,40.208c0,0-155.662,27.591-197.926,15.073c0,0,8.776-20.031,56.365-42.829l-3.511,2.696
						c-4.444,3.411-1.838,10.517,3.755,10.198C2295.407,3135.325,2360.306,3129.58,2398.987,3111.767z"/>
				</g>
				
					<linearGradient id="SVGID_00000022531726464555171170000006508135811794283189_" gradientUnits="userSpaceOnUse" x1="2912.4763" y1="-1224.9393" x2="2892.4944" y2="-245.7973">
					<stop  offset="0" style="stop-color:#FF928E"/>
					<stop  offset="1" style="stop-color:#FE7062"/>
				</linearGradient>
				<path style="fill:url(#SVGID_00000022531726464555171170000006508135811794283189_);" d="M2782.38,2513.996
					c0,0-79.544-75.741-118.699-125.909c-21.165-27.118-27.813-62.818-18.023-95.796c17.876-60.227,49.645-122.604,52.542-132.313
					c4.441-14.881,93.63-14.261,93.63-14.261s175.508,113.906,244.465,306.855l-77.443,24.11c0,0-45.825-76.88-91.103-125.759
					c0,0,78.347,103.5,81.106,145.869L2782.38,2513.996z"/>
				
					<linearGradient id="SVGID_00000023973442757026965110000004906117718724296072_" gradientUnits="userSpaceOnUse" x1="2762.2483" y1="2270.4917" x2="2731.9241" y2="2075.9121">
					<stop  offset="0" style="stop-color:#FEBBBA"/>
					<stop  offset="1" style="stop-color:#FF928E"/>
				</linearGradient>
				<path style="fill:url(#SVGID_00000023973442757026965110000004906117718724296072_);" d="M2687.413,2076.813
					c0.931,3.092,24.211,80.266,26.031,81.867c1.82,1.602,51.052,4.25,74.224-11.588l-46.48-110.655L2687.413,2076.813z"/>
				
					<linearGradient id="SVGID_00000001632131999878804630000018079717977105709237_" gradientUnits="userSpaceOnUse" x1="4036.6597" y1="3955.3496" x2="4240.7422" y2="4093.9717" gradientTransform="matrix(0.6408 -0.7677 0.7677 0.6408 -3040.8564 2660.0259)">
					<stop  offset="0" style="stop-color:#FEBBBA"/>
					<stop  offset="1" style="stop-color:#FF928E"/>
				</linearGradient>
				<path style="fill:url(#SVGID_00000001632131999878804630000018079717977105709237_);" d="M2587.16,2011.91
					c0,0-13.31,43.633,14.997,104.487c28.307,60.853,63.508,62.442,83.639,44.332c20.132-18.11,45.372-49.258,42.427-106.947
					C2725.28,1996.092,2606.022,1956.491,2587.16,2011.91z"/>
				
					<linearGradient id="SVGID_00000099636939654749580500000016001463346672316860_" gradientUnits="userSpaceOnUse" x1="2552.3059" y1="1923.2894" x2="3316.7454" y2="2589.5911">
					<stop  offset="0" style="stop-color:#4F52FF"/>
					<stop  offset="1" style="stop-color:#4042E2"/>
				</linearGradient>
				<path style="fill:url(#SVGID_00000099636939654749580500000016001463346672316860_);" d="M2685.07,2054.885
					c0,0-47.887-81.278-99.174-21.481l-1.934,22.532c0,0-56.337-9.381-43.987-60.867c12.348-51.485,73.782-92.407,135.781-66.948
					c61.999,25.46,86.108,60.978,88.058,106.356c1.95,45.378-33.536,33.785-33.536,33.785s-10.233-32.367-26.752-36.458
					c-16.518-4.089-13.347,20.927-13.347,20.927L2685.07,2054.885z"/>
				
					<linearGradient id="SVGID_00000170974298581367231790000012895262623752790426_" gradientUnits="userSpaceOnUse" x1="4029.7507" y1="3953.3193" x2="4233.8354" y2="4091.9429" gradientTransform="matrix(0.6408 -0.7677 0.7677 0.6408 -3040.8564 2660.0259)">
					<stop  offset="0" style="stop-color:#FEBBBA"/>
					<stop  offset="1" style="stop-color:#FF928E"/>
				</linearGradient>
				<path style="fill:url(#SVGID_00000170974298581367231790000012895262623752790426_);" d="M2698.327,2079.375
					c0,0-24.861-41.636,2.836-46.374c27.696-4.737,21.316,40.436,17.57,57.079L2698.327,2079.375z"/>
				
					<linearGradient id="SVGID_00000178186826483021500760000007162783963568692140_" gradientUnits="userSpaceOnUse" x1="2890.7715" y1="2500.7854" x2="3324.6763" y2="2500.7854">
					<stop  offset="0" style="stop-color:#FEBBBA"/>
					<stop  offset="1" style="stop-color:#FF928E"/>
				</linearGradient>
				<path style="fill:url(#SVGID_00000178186826483021500760000007162783963568692140_);" d="M2620.329,2519.62l58.444-56.331
					l80.848,34.154c0,0,80.474,12.468,126.533,0c46.058-12.469,46.058-12.469,46.058-12.469l104.084-32.404l16.347,46.198
					c4.151,11.73-0.02,24.752-10.162,31.958c-9.004,6.398-19.56,13.431-26.287,16.374c-13.707,5.996-337.889-4.149-337.889-4.149
					L2620.329,2519.62z"/>
				<g>
					
						<linearGradient id="SVGID_00000152982536831479999810000007199361840515659430_" gradientUnits="userSpaceOnUse" x1="2432.5137" y1="1993.3719" x2="2694.593" y2="3264.9392" gradientTransform="matrix(0.9988 -0.0494 0.0494 0.9988 -41.469 -55.0328)">
						<stop  offset="0" style="stop-color:#4F52FF"/>
						<stop  offset="1" style="stop-color:#4042E2"/>
					</linearGradient>
					<path style="fill:url(#SVGID_00000152982536831479999810000007199361840515659430_);" d="M2841.495,2546.177
						c-0.259,0.013-0.519,0.02-0.78,0.018l-339.015-0.37c-8.38-0.007-15.167-6.808-15.158-15.189
						c0.009-8.384,6.833-15.309,15.192-15.158l339.014,0.369c8.381,0.007,15.167,6.809,15.157,15.189
						C2855.897,2539.156,2849.513,2545.781,2841.495,2546.177z"/>
					
						<linearGradient id="SVGID_00000126285380696316995460000007950004552592956574_" gradientUnits="userSpaceOnUse" x1="2304.1448" y1="1859.8391" x2="2566.2241" y2="3131.4058">
						<stop  offset="0" style="stop-color:#4F52FF"/>
						<stop  offset="1" style="stop-color:#4042E2"/>
					</linearGradient>
					<path style="fill:url(#SVGID_00000126285380696316995460000007950004552592956574_);" d="M2196.942,2238.372h282.333
						c20.828,0,39.785,12.019,48.669,30.857l130.523,276.766h-350.867c-13.422,0-25.48-8.201-30.414-20.683l-101.214-256.105
						C2170.125,2254.408,2181.03,2238.372,2196.942,2238.372z"/>
				</g>
				<g>
					<path style="fill:#7D97F4;" d="M3232.724,2558.56c0.669-3.843-0.241-7.818-2.482-10.837c-2.24-3.02-5.576-4.769-9.097-4.769
						H2028.667c-4.63,0-8.939,2.625-11.433,6.961c-2.495,4.338-2.828,9.79-0.887,14.464l12.922,31.102
						c2.96,7.123,9.372,11.684,16.427,11.684h1167.267c6.563,0,12.204-5.175,13.45-12.342L3232.724,2558.56z"/>
					<g>
						<path style="fill:#7D97F4;" d="M2072.939,3214.088c-1.637,0-3.3-0.334-4.9-1.037c-6.299-2.772-9.209-10.244-6.499-16.688
							l260.374-619.297c2.708-6.442,10.006-9.417,16.311-6.648c6.297,2.771,9.207,10.243,6.498,16.687l-260.374,619.297
							C2082.329,3211.208,2077.75,3214.088,2072.939,3214.088z"/>
						<path style="fill:#7D97F4;" d="M2366.261,3214.088c-4.811,0-9.39-2.877-11.41-7.686l-260.375-619.297
							c-2.708-6.444,0.201-13.916,6.5-16.687c6.295-2.773,13.599,0.202,16.311,6.648l260.373,619.297
							c2.709,6.443-0.2,13.915-6.498,16.688C2369.563,3213.753,2367.898,3214.088,2366.261,3214.088z"/>
						<path style="fill:#7D97F4;" d="M2915.751,3214.088c-1.636,0-3.301-0.334-4.901-1.037c-6.297-2.772-9.207-10.244-6.498-16.688
							l260.374-619.297c2.71-6.442,10.004-9.417,16.31-6.648c6.298,2.771,9.208,10.243,6.499,16.687l-260.375,619.297
							C2925.141,3211.208,2920.563,3214.088,2915.751,3214.088z"/>
						<path style="fill:#7D97F4;" d="M3209.073,3214.088c-4.811,0-9.391-2.877-11.411-7.686l-260.375-619.297
							c-2.71-6.444,0.2-13.916,6.498-16.687c6.294-2.773,13.599,0.202,16.312,6.648l260.374,619.297
							c2.71,6.443-0.2,13.915-6.499,16.688C3212.375,3213.753,3210.709,3214.088,3209.073,3214.088z"/>
					</g>
				</g>
			</g>
		</g>
		<g>
			
				<linearGradient id="SVGID_00000060746211642345159040000017482282273047630211_" gradientUnits="userSpaceOnUse" x1="1111.5879" y1="3036.3877" x2="445.11" y2="3761.3293">
				<stop  offset="0" style="stop-color:#4F52FF"/>
				<stop  offset="1" style="stop-color:#4042E2"/>
			</linearGradient>
			<path style="fill:url(#SVGID_00000060746211642345159040000017482282273047630211_);" d="M900.913,3090.391
				c0,0-6.902,39.074-10.286,77.754c-1.323,15.117,10.332,28.243,25.493,28.874c51.51,2.145,161.691,6.317,201.229,4.553
				c5.944-0.265,9.83-6.35,7.63-11.878c-1.843-4.632-5.398-8.377-9.928-10.459l-182-83.647L900.913,3090.391z"/>
			
				<linearGradient id="SVGID_00000144303678339883225550000003927812798244151203_" gradientUnits="userSpaceOnUse" x1="895.2591" y1="3090.2302" x2="954.4588" y2="3090.2302">
				<stop  offset="0" style="stop-color:#FEBBBA"/>
				<stop  offset="1" style="stop-color:#FF928E"/>
			</linearGradient>
			<path style="fill:url(#SVGID_00000144303678339883225550000003927812798244151203_);" d="M895.259,3067.432l5.545,46.739
				c0,0,31.882,14.841,53.654-1.871l-13.203-52.085L895.259,3067.432z"/>
			
				<linearGradient id="SVGID_00000025421818040684009030000003290852341942966437_" gradientUnits="userSpaceOnUse" x1="754.8824" y1="2637.5686" x2="950.6265" y2="2637.5686">
				<stop  offset="0" style="stop-color:#09005D"/>
				<stop  offset="1" style="stop-color:#1A0F91"/>
			</linearGradient>
			<path style="fill:url(#SVGID_00000025421818040684009030000003290852341942966437_);" d="M899.427,2188.736
				c-2.396,12.205-12.857,609.081,50.944,876.561c1.041,4.365-1.171,8.863-5.325,10.56c-9.786,3.998-28.97,9.788-51.961,10.56
				c-7.12,0.239-13.503-4.388-15.512-11.223c-18.238-62.059-105.628-372.995-117.029-670.023c-12.739-331.899,0-11.301,0-11.301
				l7.471-205.16L899.427,2188.736z"/>
			
				<linearGradient id="SVGID_00000135676891961801768810000012704025480745819831_" gradientUnits="userSpaceOnUse" x1="962.0748" y1="2898.9316" x2="295.5957" y2="3623.8745">
				<stop  offset="0" style="stop-color:#4F52FF"/>
				<stop  offset="1" style="stop-color:#4042E2"/>
			</linearGradient>
			<path style="fill:url(#SVGID_00000135676891961801768810000012704025480745819831_);" d="M691.553,3110.777
				c0,0-10.987,19.726-21.624,72.143c-1.921,9.467,4.693,18.527,14.306,19.472c17.008,1.672,43.193,3.823,64.167,3.678
				c9.669-0.066,17.215-8.485,16.049-18.084c-2.323-19.133-9.561-50.523-31.92-74.99L691.553,3110.777z"/>
			
				<linearGradient id="SVGID_00000116237095028098771550000004308732344088489130_" gradientUnits="userSpaceOnUse" x1="681.9034" y1="3087.1943" x2="733.0171" y2="3087.1943">
				<stop  offset="0" style="stop-color:#FEBBBA"/>
				<stop  offset="1" style="stop-color:#FF928E"/>
			</linearGradient>
			<path style="fill:url(#SVGID_00000116237095028098771550000004308732344088489130_);" d="M681.903,3050.66l12.958,70.681
				c0,0,12.812,9.53,38.156,2.621l-6.185-76.048L681.903,3050.66z"/>
			
				<linearGradient id="SVGID_00000179610304682309754910000010395598328847197881_" gradientUnits="userSpaceOnUse" x1="626.8109" y1="2631.1641" x2="904.7045" y2="2631.1641">
				<stop  offset="0" style="stop-color:#09005D"/>
				<stop  offset="1" style="stop-color:#1A0F91"/>
			</linearGradient>
			<path style="fill:url(#SVGID_00000179610304682309754910000010395598328847197881_);" d="M646.898,2207.052
				c-52.181,314.917,11.319,778.342,32.735,869.046c1.311,5.553,5.793,9.807,11.421,10.74c9.559,1.585,25.298,2.878,40.814-1.628
				c5.346-1.553,9.102-6.375,9.32-11.938c2.873-73.332-2.298-523.513,46.323-701.427c2.464-9.016,7.97-16.88,15.589-22.295
				l94.37-67.089l7.235-108.444L646.898,2207.052z"/>
			<g>
				
					<linearGradient id="SVGID_00000047046912866653780690000007109893763841088180_" gradientUnits="userSpaceOnUse" x1="979.3889" y1="-1264.3878" x2="959.4072" y2="-285.2501">
					<stop  offset="0" style="stop-color:#FF928E"/>
					<stop  offset="1" style="stop-color:#FE7062"/>
				</linearGradient>
				<path style="fill:url(#SVGID_00000047046912866653780690000007109893763841088180_);" d="M979.398,1610.346
					c-156.377-2.583-328.921,41.06-328.921,41.06c-46.613,271.984-8.151,585.697-8.151,585.697
					c121.063,31.748,257.629-19.411,257.629-19.411c20.121-113.682,114.003-433.623,114.003-433.623
					c76.405-9.483,139.346-31.527,191.179-60.671c-39.537-45.829-58.176-104.145-66.271-138.617
					C1083.577,1601.965,1027.63,1611.143,979.398,1610.346z"/>
				
					<linearGradient id="SVGID_00000076571815001829325380000016673581053816421003_" gradientUnits="userSpaceOnUse" x1="1138.8661" y1="1545.7793" x2="1441.3077" y2="1545.7793">
					<stop  offset="0" style="stop-color:#FEBBBA"/>
					<stop  offset="1" style="stop-color:#FF928E"/>
				</linearGradient>
				<path style="fill:url(#SVGID_00000076571815001829325380000016673581053816421003_);" d="M1441.308,1380.011
					c-15.362-18.554-34.804-9.777-34.804-9.777c-23.012,97.206-143.674,176.023-267.638,214.548
					c8.096,34.472,26.735,92.787,66.271,138.617C1410.866,1607.726,1441.308,1380.011,1441.308,1380.011z"/>
			</g>
			<g>
				
					<linearGradient id="SVGID_00000132789096158308636150000002639103067590642839_" gradientUnits="userSpaceOnUse" x1="9073.8447" y1="1495.083" x2="9276.79" y2="1956.8298" gradientTransform="matrix(-1 0 0 1 10447.7783 0)">
					<stop  offset="0" style="stop-color:#FEBBBA"/>
					<stop  offset="1" style="stop-color:#FF928E"/>
				</linearGradient>
				<path style="fill:url(#SVGID_00000132789096158308636150000002639103067590642839_);" d="M1437.579,1384.729
					c1.608,5.11-17.006,12.891-27.966-8.008c-0.383-10.016-6.474-52.927-0.49-61.086c31.877-43.459,93.679-97.936,93.679-97.936
					c10.445,10.306,1.84,20.431,1.84,20.431l-29.98,31.232c6.271,11.332,13.919,20.897,17.505,34.604
					c2.715,10.38,1.054,21.473-4.189,30.92c-5.263,9.481-12.443,21.806-19.23,31.451
					C1455.899,1384.592,1437.579,1384.729,1437.579,1384.729z"/>
				
					<linearGradient id="SVGID_00000129176473506145711910000012682770060573318032_" gradientUnits="userSpaceOnUse" x1="1439.856" y1="1341.3047" x2="1524.5366" y2="1211.1079">
					<stop  offset="0" style="stop-color:#FEBBBA"/>
					<stop  offset="1" style="stop-color:#FF928E"/>
				</linearGradient>
				<path style="fill:url(#SVGID_00000129176473506145711910000012682770060573318032_);" d="M1461.548,1289.625l-27.321,23.161
					l-8.578,23.06l24.359,27.023c0,0,8.19-45.754,14.277-55.657C1470.373,1297.31,1467.216,1292.522,1461.548,1289.625z"/>
			</g>
			
				<linearGradient id="SVGID_00000089570020712435926550000015970805130736319930_" gradientUnits="userSpaceOnUse" x1="658.9031" y1="-1270.9208" x2="638.9214" y2="-291.7797">
				<stop  offset="0" style="stop-color:#FF928E"/>
				<stop  offset="1" style="stop-color:#FE7062"/>
			</linearGradient>
			<path style="fill:url(#SVGID_00000089570020712435926550000015970805130736319930_);" d="M710.457,1802.825l-59.98-151.419
				c0,0-146.064,99.245-170.085,225.076c27.599,2.032,77.819,9.211,126.976,34.032
				C618.17,1851.098,710.457,1802.825,710.457,1802.825z"/>
			
				<linearGradient id="SVGID_00000165916855282453067130000005974766602312999312_" gradientUnits="userSpaceOnUse" x1="477.0616" y1="1974.1797" x2="859.8039" y2="1974.1797">
				<stop  offset="0" style="stop-color:#FEBBBA"/>
				<stop  offset="1" style="stop-color:#FF928E"/>
			</linearGradient>
			<path style="fill:url(#SVGID_00000165916855282453067130000005974766602312999312_);" d="M838.101,1945.304
				c0,0-163.993,92.682-219.328,13.542c-11.489-16.432-14.235-32.764-11.405-48.333c-49.157-24.821-99.378-32-126.976-34.032
				c-7.243,37.933-3.414,78.279,18.877,119.056c96.927,177.305,360.535-9.799,360.535-9.799L838.101,1945.304z"/>
			<g>
				
					<linearGradient id="SVGID_00000050623326349870388480000013998493397779208081_" gradientUnits="userSpaceOnUse" x1="975.5974" y1="1702.0618" x2="1186.0533" y2="2578.9641">
					<stop  offset="0" style="stop-color:#4F52FF"/>
					<stop  offset="1" style="stop-color:#4042E2"/>
				</linearGradient>
				<path style="fill:url(#SVGID_00000050623326349870388480000013998493397779208081_);" d="M818.397,2062.556l89.502-312.56
					c1.016-3.548,4.043-6.136,7.709-6.563c16.216-1.891,63.204-7.203,117.457-11.792c65.349-5.528,141.238-10.006,186.587-6.196
					c6.447,0.542,10.343,7.36,7.476,13.161c-25.788,52.173-131.865,264.4-184.985,333.923c-1.76,2.303-4.481,3.65-7.38,3.623
					l-207.659-1.932C821.061,2074.163,816.734,2068.366,818.397,2062.556z"/>
				<path style="fill:#91B3FA;" d="M1042.348,1704.543l64.891-10.812c3.456-0.576,6.286,2.727,5.188,6.053l-6.424,19.465
					c-0.559,1.694-2.037,2.921-3.806,3.157l-62.443,8.341c-3.231,0.432-5.894-2.504-5.151-5.677l3.977-16.994
					C1039.007,1706.245,1040.494,1704.852,1042.348,1704.543z"/>
				<path style="fill:#91B3FA;" d="M993.76,1759.478l5.345-27.845c0.536-2.793,2.842-4.903,5.671-5.19l131.064-13.3
					c4.411-0.448,7.944,3.595,6.908,7.907l-8.333,34.697c-0.667,2.776-3.083,4.781-5.935,4.925l-128.076,6.447
					C996.236,1767.329,992.973,1763.577,993.76,1759.478z"/>
				
					<linearGradient id="SVGID_00000103249640641180052470000013251539005282987444_" gradientUnits="userSpaceOnUse" x1="831.3869" y1="1934.0493" x2="950.6265" y2="1934.0493">
					<stop  offset="0" style="stop-color:#FEBBBA"/>
					<stop  offset="1" style="stop-color:#FF928E"/>
				</linearGradient>
				<path style="fill:url(#SVGID_00000103249640641180052470000013251539005282987444_);" d="M840.021,1987.042
					c0,0-12.468-51.267-7.438-69.455c5.029-18.188,14.773-41.574,47.252-36.377c32.479,5.197,70.792,18.879,70.792,18.879
					s-1.935,23.692-26.62,16.048l15.307,11.844c0,0-2.188,18.97-23.038,8.835l14.237,15.708c0,0-8.954,15.58-24.294,5.587
					C890.878,1948.118,883.524,1993.215,840.021,1987.042z"/>
			</g>
			
				<linearGradient id="SVGID_00000026138516937683697360000000217062762448542864_" gradientUnits="userSpaceOnUse" x1="770.9545" y1="1565.0045" x2="922.278" y2="1565.0045">
				<stop  offset="0" style="stop-color:#FEBBBA"/>
				<stop  offset="1" style="stop-color:#FF928E"/>
			</linearGradient>
			<path style="fill:url(#SVGID_00000026138516937683697360000000217062762448542864_);" d="M821.001,1483.392l-49.757,143.893
				c-0.824,2.384,0.155,5.023,2.363,6.244c13.564,7.499,62.429,29.175,121.316-8.161c6.134-3.889,10.31-10.233,11.242-17.436
				l16.113-124.54H821.001z"/>
			<g>
				
					<linearGradient id="SVGID_00000084524317739564964780000010786912299540596896_" gradientUnits="userSpaceOnUse" x1="-4622.5239" y1="-1080.7386" x2="-4679.0718" y2="-1267.2473" gradientTransform="matrix(0.746 -0.6659 0.6659 0.746 5126.3354 -803.1727)">
					<stop  offset="0" style="stop-color:#FEBBBA"/>
					<stop  offset="1" style="stop-color:#FF928E"/>
				</linearGradient>
				<path style="fill:url(#SVGID_00000084524317739564964780000010786912299540596896_);" d="M929.264,1350.143
					c0,0,54.638,102.85,47.635,144.396c-7.004,41.546-74.719,38.563-133.85,4.821l-41.32-111.055L929.264,1350.143z"/>
				
					<linearGradient id="SVGID_00000041284127314726332170000003338479318676085154_" gradientUnits="userSpaceOnUse" x1="-4673.5415" y1="-1405.7023" x2="-4626.2393" y2="-1135.9056" gradientTransform="matrix(0.746 -0.6659 0.6659 0.746 5126.3354 -803.1727)">
					<stop  offset="0" style="stop-color:#09005D"/>
					<stop  offset="1" style="stop-color:#1A0F91"/>
				</linearGradient>
				<path style="fill:url(#SVGID_00000041284127314726332170000003338479318676085154_);" d="M845.662,1444.821
					c2.403-1.064,3.29-4.005,1.85-6.204c-4.378-6.687-12.583-20.33-15.201-32.275c0,0-9.822-6.291,25-14.625
					c34.822-8.335,86.751-21.272,97.665-50.912c10.641-28.898-17.319-101.572-61.928-43.666c-1.697,2.203-5.022,2.252-6.717,0.047
					c-7.313-9.518-26.539-29.273-53.231-17.297c-24.979,11.208-27.793,29.511-27.45,38.737c0.101,2.714-2.325,4.824-4.993,4.315
					c-12.63-2.408-42.936-4.477-57.081,26.612c-11.651,25.608-4.079,40.104,2.819,47.193c2.234,2.297,1.255,6.079-1.809,7.017
					c-8.3,2.541-19.018,9.579-17.945,29.025c1.483,26.883,31.54,24.515,40.098,23.289c1.402-0.201,2.815,0.28,3.764,1.331
					c7.338,8.119,40.397,42.598,76.177,46.754c3.098,0.36,5.499-2.7,4.485-5.649l-15.485-45.012
					c-0.719-2.09,0.281-4.384,2.302-5.279L845.662,1444.821z"/>
				
					<linearGradient id="SVGID_00000069364759568446109850000002349562774733308310_" gradientUnits="userSpaceOnUse" x1="-4680.3291" y1="-1081.6067" x2="-4731.2065" y2="-1249.4124" gradientTransform="matrix(0.746 -0.6659 0.6659 0.746 5126.3354 -803.1727)">
					<stop  offset="0" style="stop-color:#FEBBBA"/>
					<stop  offset="1" style="stop-color:#FF928E"/>
				</linearGradient>
				<path style="fill:url(#SVGID_00000069364759568446109850000002349562774733308310_);" d="M851.887,1451.21
					c0,0-38.903-26.691-41.745-4.214c-2.842,22.477,35.032,32.558,53.792,24.178L851.887,1451.21z"/>
			</g>
		</g>
		<g>
			<g>
				<path style="fill:#7D97F4;" d="M1152.006,750.938c129.737,17.466,269.703,100.598,282.841,242.027
					c11.171,120.266-116.059,183.601-195.086,213.378c-22.042,8.305-40.249,24.393-51.261,45.215
					c-26.352,49.828-87.092,136.459-180.244,107.277c-6.785-2.126-6.06-12.006,0.947-13.212
					c22.291-3.836,52.983-13.706,69.905-39.031c23.047-34.493,2.051-81.332-38.79-88.607
					c-77.291-13.768-228.291-63.93-248.981-246.162C763.354,725.369,1152.006,750.938,1152.006,750.938z"/>
				<path style="fill:#FFFFFF;" d="M1367.026,901.223c-2.327,0.496-4.829-0.399-6.282-2.469
					c-35.293-50.301-109.003-111.477-259.722-117.266c-3.374-0.129-6.004-2.968-5.874-6.343c0.13-3.372,2.975-5.993,6.342-5.872
					c85.953,3.302,202.439,27.227,269.261,122.458c1.938,2.764,1.271,6.577-1.492,8.515
					C1368.565,900.733,1367.805,901.057,1367.026,901.223z"/>
				<path style="fill:#FFFFFF;" d="M1407.642,1005.014c-0.286,0.061-0.581,0.103-0.883,0.124c-3.366,0.22-6.275-2.33-6.498-5.694
					c-0.011-0.169-1.057-14.667-7.617-35.802c-1.001-3.226,0.801-6.649,4.025-7.651c3.25-0.971,6.649,0.801,7.65,4.027
					c7.03,22.652,8.098,37.979,8.14,38.62C1412.66,1001.705,1410.562,1004.392,1407.642,1005.014z"/>
			</g>
			<g>
				<g>
					<path style="fill:#FFFFFF;" d="M1041.012,955.328c0-3.598,1.946-7.393,5.844-7.393h131.567c3.898,0,9.127,3.795,9.127,7.393
						v27.72c0,3.598-5.229,8.182-9.127,8.182h-131.567c-3.898,0-5.844-4.584-5.844-8.182V955.328z"/>
					<path style="fill:#FFFFFF;" d="M1134.263,1067.975c0,3.598-2.917,6.515-6.516,6.515h-33.594c-3.599,0-6.516-2.917-6.516-6.515
						V887.842c0-3.598,2.917-6.515,6.516-6.515h33.594c3.599,0,6.516,2.917,6.516,6.515V1067.975z"/>
				</g>
				<g>
					<path style="fill:#FFFFFF;" d="M961.452,982.312c0-83.018,67.539-150.558,150.558-150.558
						c83.018,0,150.558,67.539,150.558,150.558s-67.54,150.558-150.558,150.558C1028.992,1132.87,961.452,1065.33,961.452,982.312z
						 M977.37,982.312c0,74.239,60.4,134.639,134.64,134.639s134.639-60.4,134.639-134.639s-60.4-134.64-134.639-134.64
						S977.37,908.073,977.37,982.312z"/>
				</g>
			</g>
			<g>
				<g>
					<g>
						<path style="fill:#FFFFFF;" d="M1034.634,1174.187c1.788,0,3.428-1.188,3.925-2.994c0.599-2.169-0.677-4.414-2.845-5.01
							c-1.407-0.388-141.075-44.388-148.844-169.363c-0.139-2.247-2.101-3.969-4.32-3.814c-2.247,0.139-3.954,2.073-3.815,4.32
							c8.114,130.532,153.351,176.311,154.813,176.713C1033.912,1174.14,1034.276,1174.187,1034.634,1174.187z"/>
					</g>
					<g>
						<g>
							<path style="fill:#FFFFFF;" d="M881.398,1003.401c0,0,32.409-61.184,35.731-32.273
								C920.451,1000.038,892.425,1004.728,881.398,1003.401z"/>
						</g>
						<g>
							<path style="fill:#FFFFFF;" d="M884.923,1001.947c0,0-45.052-52.576-41.945-23.641
								C846.084,1007.24,874.457,1005.663,884.923,1001.947z"/>
						</g>
					</g>
					<g>
						<g>
							<path style="fill:#FFFFFF;" d="M900.439,1064.226c0,0,23.225-65.226,30.691-37.099
								C938.595,1055.254,911.541,1063.946,900.439,1064.226z"/>
						</g>
						<g>
							<path style="fill:#FFFFFF;" d="M903.716,1062.278c0,0-52.178-45.512-44.922-17.33
								C866.051,1073.13,893.897,1067.468,903.716,1062.278z"/>
						</g>
					</g>
					<g>
						<g>
							<path style="fill:#FFFFFF;" d="M942.542,1117.913c0,0,0.029-69.238,16.487-45.238
								C975.487,1096.675,952.909,1113.929,942.542,1117.913z"/>
						</g>
						<g>
							<path style="fill:#FFFFFF;" d="M944.977,1114.98c0,0-64.411-25.4-48.132-1.278
								C913.124,1137.823,937.464,1123.159,944.977,1114.98z"/>
						</g>
					</g>
					<g>
						<g>
							<path style="fill:#FFFFFF;" d="M997.003,1156.146c0,0-22.763-65.389,0.678-48.144
								C1021.122,1125.248,1005.481,1148.972,997.003,1156.146z"/>
						</g>
						<g>
							<path style="fill:#FFFFFF;" d="M998.337,1152.575c0,0-69.182-2.783-45.87,14.636
								C975.779,1184.63,993.935,1162.771,998.337,1152.575z"/>
						</g>
					</g>
				</g>
				<g>
					<g>
						<path style="fill:#FFFFFF;" d="M1168.829,1174.187c-1.789,0-3.428-1.188-3.926-2.994c-0.599-2.169,0.677-4.414,2.846-5.01
							c1.407-0.388,141.075-44.388,148.844-169.363c0.139-2.247,2.101-3.969,4.32-3.814c2.247,0.139,3.954,2.073,3.815,4.32
							c-8.115,130.532-153.351,176.311-154.813,176.713C1169.551,1174.14,1169.187,1174.187,1168.829,1174.187z"/>
					</g>
					<g>
						<g>
							<path style="fill:#FFFFFF;" d="M1322.064,1003.401c0,0-32.409-61.184-35.731-32.273
								C1283.011,1000.038,1311.038,1004.728,1322.064,1003.401z"/>
						</g>
						<g>
							<path style="fill:#FFFFFF;" d="M1318.54,1001.947c0,0,45.052-52.576,41.945-23.641
								C1357.378,1007.24,1329.006,1005.663,1318.54,1001.947z"/>
						</g>
					</g>
					<g>
						<g>
							<path style="fill:#FFFFFF;" d="M1303.024,1064.226c0,0-23.225-65.226-30.691-37.099
								C1264.867,1055.254,1291.922,1063.946,1303.024,1064.226z"/>
						</g>
						<g>
							<path style="fill:#FFFFFF;" d="M1299.747,1062.278c0,0,52.178-45.512,44.922-17.33
								C1337.412,1073.13,1309.566,1067.468,1299.747,1062.278z"/>
						</g>
					</g>
					<g>
						<g>
							<path style="fill:#FFFFFF;" d="M1260.921,1117.913c0,0-0.029-69.238-16.487-45.238
								C1227.976,1096.675,1250.554,1113.929,1260.921,1117.913z"/>
						</g>
						<g>
							<path style="fill:#FFFFFF;" d="M1258.486,1114.98c0,0,64.411-25.4,48.131-1.278
								C1290.339,1137.823,1265.999,1123.159,1258.486,1114.98z"/>
						</g>
					</g>
					<g>
						<g>
							<path style="fill:#FFFFFF;" d="M1206.46,1156.146c0,0,22.762-65.389-0.678-48.144
								C1182.341,1125.248,1197.982,1148.972,1206.46,1156.146z"/>
						</g>
						<g>
							<path style="fill:#FFFFFF;" d="M1205.125,1152.575c0,0,69.182-2.783,45.87,14.636
								C1227.684,1184.63,1209.527,1162.771,1205.125,1152.575z"/>
						</g>
					</g>
				</g>
			</g>
		</g>
		<g>
			<path style="fill:#91B3FA;" d="M2298.739,1638.609v175.593c0,14.309,10.197,25.909,22.778,25.909h748.167
				c10.451,0,19.562,8.091,22.097,19.625l13.436,61.134c1.782,8.107,11.685,8.778,14.299,0.969l17.299-51.653
				c3.365-10.046,11.834-16.686,21.286-16.686h32.156c12.58,0,22.779-11.6,22.779-25.909v-180.5
				c0-14.222-10.08-25.787-22.583-25.907l-868.742-8.483C2309.055,1612.578,2298.739,1624.213,2298.739,1638.609z"/>
			<g>
				<path style="fill:#FFFFFF;" d="M2426.448,1823.226c-50.373,0-91.355-42.001-91.355-93.625c0-51.628,40.983-93.629,91.355-93.629
					s91.355,42.001,91.355,93.629C2517.804,1781.226,2476.821,1823.226,2426.448,1823.226z M2426.448,1645.964
					c-44.863,0-81.364,37.519-81.364,83.637c0,46.115,36.501,83.634,81.364,83.634s81.364-37.519,81.364-83.634
					C2507.812,1683.483,2471.311,1645.964,2426.448,1645.964z"/>
				<g>
					<path style="fill:#FFFFFF;" d="M2443.499,1673.718c0-5.651-4.58-10.231-10.231-10.231h-13.642
						c-5.65,0-10.231,4.58-10.231,10.231v109.134c0,5.65,4.581,10.231,10.231,10.231h13.642c5.651,0,10.231-4.581,10.231-10.231
						V1673.718z"/>
					<path style="fill:#FFFFFF;" d="M2473.088,1710.839c0-5.651-4.581-10.231-10.231-10.231h-72.789
						c-5.651,0-10.231,4.581-10.231,10.231v6.181c0,5.651,4.581,10.231,10.231,10.231h72.789c5.651,0,10.231-4.581,10.231-10.231
						V1710.839z"/>
				</g>
			</g>
			<g>
				<path style="fill:#FFFFFF;" d="M3173.856,1688.743c0,10.971-8.894,19.866-19.866,19.866h-584.62
					c-10.971,0-19.865-8.894-19.865-19.866l0,0c0-10.972,8.894-19.866,19.865-19.866h584.62
					C3164.962,1668.877,3173.856,1677.771,3173.856,1688.743L3173.856,1688.743z"/>
				<path style="fill:#FFFFFF;" d="M3173.856,1768.206c0,10.971-8.894,19.866-19.866,19.866h-584.62
					c-10.971,0-19.865-8.894-19.865-19.866l0,0c0-10.972,8.894-19.866,19.865-19.866h584.62
					C3164.962,1748.34,3173.856,1757.234,3173.856,1768.206L3173.856,1768.206z"/>
			</g>
		</g>
	</g>
	<g>
		
			<linearGradient id="SVGID_00000146458571503296215910000010870943935820296894_" gradientUnits="userSpaceOnUse" x1="-437.15" y1="3251.5806" x2="-2497.4419" y2="1448.8265">
			<stop  offset="0" style="stop-color:#DAE3FE"/>
			<stop  offset="1" style="stop-color:#E9EFFD"/>
		</linearGradient>
		<path style="fill:url(#SVGID_00000146458571503296215910000010870943935820296894_);" d="M-787.292,2315.33
			c-266.273,626.965-975.561,978.195-1590.658,883.452c-100.089-15.417-374.484-61.34-617.424-277.992
			c-467.675-417.071-567.69-1242.925-190.431-1824.925c274.578-423.593,766.788-663.714,1234.484-651.703
			c100.742,2.587,486.826,18.532,826.127,298.312c49.837,41.094,159.756,138.746,258.82,293.663
			C-633.754,1399.912-613.759,1906.729-787.292,2315.33z"/>
		<path style="fill:#BDD0FB;" d="M-2075.728,2793.789c186.072-3.554,381.655,31.602,562.757-47.448
			c18.347-8.009,39.377-21.683,43.075-49.95c5.703-43.603-32.456-67.027-61.649-73.021c-74.967-15.392-149.934-30.785-224.9-46.177
			c-45.782-9.4-91.672-18.831-136.497-35.729c-40.672-15.333-80.213-36.718-119.675-58.067
			c-123.668-66.904-246.614-143.658-371.06-204.88c-47.616-23.425-116.426-67.046-167.054-58.244
			c-104.688,18.201-215.738,119.275-313.006,177.249c-144.321,86.017-288.642,172.034-432.962,258.051
			c-29.103,17.346-66.876,40.077-41.389,92.741c16.975,35.075,51.73,50.162,79.237,49.11
			c133.715-5.113,267.295-15.811,400.938-23.844c134.802-8.103,264.977,3.572,399.533,12.63
			C-2330.875,2794.794-2203.3,2796.226-2075.728,2793.789z"/>
		<polygon style="fill:#91B3FA;" points="-2577.768,2425.31 -2691.44,2521.95 -2652.161,2521.95 -2652.161,2632.336 
			-2728.909,2638.575 -2728.909,2509.795 -2803.513,2437.961 -2868.187,2504.77 -2872.022,2673.117 -2454.488,2664.028 
			-2476.423,2503.067 		"/>
		<g>
			<defs>
				<path id="SVGID_00000052783550486044019430000005868600521102732421_" d="M-772.825,2313.29
					c-266.273,626.965-975.561,978.195-1590.658,883.452c-100.089-15.417-374.484-61.34-617.424-277.992
					c-467.675-417.071-567.69-1242.925-190.431-1824.925c274.578-423.593,766.788-663.714,1234.484-651.703
					c100.742,2.587,486.826,18.532,826.127,298.312c49.837,41.094,159.756,138.745,258.82,293.663
					C-619.287,1397.872-599.292,1904.689-772.825,2313.29z"/>
			</defs>
			<clipPath id="SVGID_00000155109092148558890860000004525134611766427021_">
				<use xlink:href="#SVGID_00000052783550486044019430000005868600521102732421_"  style="overflow:visible;"/>
			</clipPath>
			
				<polygon style="opacity:0.49;clip-path:url(#SVGID_00000155109092148558890860000004525134611766427021_);fill:#FFFFFF;" points="
				-1674.715,-256.189 -1654.659,1449.038 -1275.794,-214.81 -1615.424,1457.268 -894.308,-92.483 -1578.78,1473.369 
				-546.93,105.446 -1546.329,1496.637 -248.84,370.327 -1519.489,1526.055 -13.069,690.583 -1499.433,1560.338 150.081,1052.218 
				-1487.037,1597.986 233.478,1439.425 -1482.845,1637.355 233.478,1835.284 -1487.037,1676.724 150.081,2222.492 
				-1499.433,1714.372 -13.069,2584.127 -1519.489,1748.654 -248.84,2904.383 -1546.329,1778.073 -546.93,3169.264 
				-1578.78,1801.34 -894.308,3367.193 -1615.424,1817.441 -1275.794,3489.52 -1654.659,1825.672 -1674.715,3530.899 
				-1694.771,1825.672 -2073.636,3489.52 -1734.006,1817.441 -2455.122,3367.193 -1770.65,1801.34 -2802.501,3169.264 
				-1803.101,1778.073 -3100.59,2904.383 -1829.941,1748.654 -3336.361,2584.127 -1849.997,1714.372 -4054.591,2251.983 
				-1862.393,1676.724 -4117.991,1820.519 -1866.585,1637.355 -4204.75,1223.859 -1862.393,1597.986 -4031.232,768.69 
				-1849.997,1560.338 -3573.103,451.138 -1829.941,1526.055 -3100.59,370.327 -1803.101,1496.637 -2802.501,105.446 
				-1770.65,1473.369 -2455.122,-92.483 -1734.006,1457.268 -2073.636,-214.81 -1694.771,1449.038 			"/>
		</g>
		<g>
			<g>
				
					<linearGradient id="SVGID_00000085246198285999119510000010250893822986344865_" gradientUnits="userSpaceOnUse" x1="-1350.7795" y1="1330.6851" x2="-1334.0952" y2="1330.6851">
					<stop  offset="0" style="stop-color:#09005D"/>
					<stop  offset="1" style="stop-color:#1A0F91"/>
				</linearGradient>
				
					<rect x="-1350.78" y="1253.937" style="fill:url(#SVGID_00000085246198285999119510000010250893822986344865_);" width="16.684" height="153.496"/>
				
					<linearGradient id="SVGID_00000108999653504462880420000013277640946510974889_" gradientUnits="userSpaceOnUse" x1="-1387.4852" y1="1320.6743" x2="-1300.7264" y2="1320.6743">
					<stop  offset="0" style="stop-color:#09005D"/>
					<stop  offset="1" style="stop-color:#1A0F91"/>
				</linearGradient>
				
					<rect x="-1387.485" y="1314.001" style="fill:url(#SVGID_00000108999653504462880420000013277640946510974889_);" width="86.759" height="13.347"/>
			</g>
			
				<linearGradient id="SVGID_00000165950044320246763810000003863916828918430102_" gradientUnits="userSpaceOnUse" x1="-1373.3278" y1="2347.99" x2="-1216.6929" y2="1378.8074">
				<stop  offset="0" style="stop-color:#FF928E"/>
				<stop  offset="1" style="stop-color:#FE7062"/>
			</linearGradient>
			<polygon style="fill:url(#SVGID_00000165950044320246763810000003863916828918430102_);" points="-1344.013,1397.834 
				-1701.151,1763.813 -1701.151,2508.602 -977.049,2508.602 -977.049,1751.532 			"/>
			
				<linearGradient id="SVGID_00000152961543625956669970000014158495253031828096_" gradientUnits="userSpaceOnUse" x1="-1753.668" y1="1590.6348" x2="-933.2843" y2="1590.6348">
				<stop  offset="0" style="stop-color:#09005D"/>
				<stop  offset="1" style="stop-color:#1A0F91"/>
			</linearGradient>
			<polygon style="fill:url(#SVGID_00000152961543625956669970000014158495253031828096_);" points="-1700.449,1799.838 
				-1338.973,1440.263 -990.596,1801.184 -933.284,1801.184 -1338.563,1380.085 -1753.668,1800.789 			"/>
			
				<linearGradient id="SVGID_00000062880116554621206230000013794582422055164052_" gradientUnits="userSpaceOnUse" x1="-1407.5063" y1="2346.7637" x2="-1274.0314" y2="2346.7637">
				<stop  offset="0" style="stop-color:#E1473D"/>
				<stop  offset="1" style="stop-color:#E9605A"/>
			</linearGradient>
			<path style="fill:url(#SVGID_00000062880116554621206230000013794582422055164052_);" d="M-1315.229,2184.925h-46.668
				c-23.74,0-45.609,23.062-45.609,46.802v276.875h133.475v-276.875C-1274.031,2207.987-1291.49,2184.925-1315.229,2184.925z"/>
			<g>
				
					<linearGradient id="SVGID_00000170262177006768272710000014440060519431985842_" gradientUnits="userSpaceOnUse" x1="-1657.7721" y1="1973.2552" x2="-1587.6978" y2="1973.2552">
					<stop  offset="0" style="stop-color:#E1473D"/>
					<stop  offset="1" style="stop-color:#E9605A"/>
				</linearGradient>
				<path style="fill:url(#SVGID_00000170262177006768272710000014440060519431985842_);" d="M-1622.735,1881.713
					c-29.475,22.106-35.037,76.143-35.037,76.143v106.941h36.741h33.333v-106.941
					C-1587.698,1957.856-1593.26,1903.819-1622.735,1881.713z"/>
				
					<linearGradient id="SVGID_00000127727939435723044920000017122627707926662589_" gradientUnits="userSpaceOnUse" x1="-1520.9602" y1="1973.2552" x2="-1450.8857" y2="1973.2552">
					<stop  offset="0" style="stop-color:#E1473D"/>
					<stop  offset="1" style="stop-color:#E9605A"/>
				</linearGradient>
				<path style="fill:url(#SVGID_00000127727939435723044920000017122627707926662589_);" d="M-1485.923,1881.713
					c-29.475,22.106-35.037,76.143-35.037,76.143v106.941h37.479h32.596v-106.941
					C-1450.886,1957.856-1456.448,1903.819-1485.923,1881.713z"/>
			</g>
			<g>
				
					<linearGradient id="SVGID_00000021822421625023789410000016241795723535716771_" gradientUnits="userSpaceOnUse" x1="-1230.652" y1="1973.2552" x2="-1160.5776" y2="1973.2552">
					<stop  offset="0" style="stop-color:#E1473D"/>
					<stop  offset="1" style="stop-color:#E9605A"/>
				</linearGradient>
				<path style="fill:url(#SVGID_00000021822421625023789410000016241795723535716771_);" d="M-1195.615,1881.713
					c-29.475,22.106-35.037,76.143-35.037,76.143v106.941h37.007h33.068v-106.941
					C-1160.578,1957.856-1166.14,1903.819-1195.615,1881.713z"/>
				
					<linearGradient id="SVGID_00000062190558718722732030000000443035545972936639_" gradientUnits="userSpaceOnUse" x1="-1090.5032" y1="1973.2552" x2="-1023.7657" y2="1973.2552">
					<stop  offset="0" style="stop-color:#E1473D"/>
					<stop  offset="1" style="stop-color:#E9605A"/>
				</linearGradient>
				<path style="fill:url(#SVGID_00000062190558718722732030000000443035545972936639_);" d="M-1057.135,1881.713
					c-29.475,22.106-33.369,76.143-33.369,76.143v106.941h34.407h32.331v-106.941
					C-1023.766,1957.856-1027.66,1903.819-1057.135,1881.713z"/>
			</g>
			<g>
				<g>
					
						<linearGradient id="SVGID_00000019672889164264951280000001707338171125333427_" gradientUnits="userSpaceOnUse" x1="-1657.7721" y1="2328.6272" x2="-1587.6978" y2="2328.6272">
						<stop  offset="0" style="stop-color:#E1473D"/>
						<stop  offset="1" style="stop-color:#E9605A"/>
					</linearGradient>
					<path style="fill:url(#SVGID_00000019672889164264951280000001707338171125333427_);" d="M-1622.735,2235.411
						c-29.475,22.106-35.037,76.144-35.037,76.144v110.289h36.741h33.333v-110.289
						C-1587.698,2311.555-1593.26,2257.517-1622.735,2235.411z"/>
					
						<linearGradient id="SVGID_00000168081592655113118770000003973768909811079059_" gradientUnits="userSpaceOnUse" x1="-1520.9602" y1="2328.6272" x2="-1450.8857" y2="2328.6272">
						<stop  offset="0" style="stop-color:#E1473D"/>
						<stop  offset="1" style="stop-color:#E9605A"/>
					</linearGradient>
					<path style="fill:url(#SVGID_00000168081592655113118770000003973768909811079059_);" d="M-1485.923,2235.411
						c-29.475,22.106-35.037,76.144-35.037,76.144v110.289h37.479h32.596v-110.289
						C-1450.886,2311.555-1456.448,2257.517-1485.923,2235.411z"/>
				</g>
				<g>
					
						<linearGradient id="SVGID_00000088133849032874906660000007659454393018141843_" gradientUnits="userSpaceOnUse" x1="-1230.652" y1="2328.6272" x2="-1160.5776" y2="2328.6272">
						<stop  offset="0" style="stop-color:#E1473D"/>
						<stop  offset="1" style="stop-color:#E9605A"/>
					</linearGradient>
					<path style="fill:url(#SVGID_00000088133849032874906660000007659454393018141843_);" d="M-1195.615,2235.411
						c-29.475,22.106-35.037,76.144-35.037,76.144v110.289h37.007h33.068v-110.289
						C-1160.578,2311.555-1166.14,2257.517-1195.615,2235.411z"/>
					
						<linearGradient id="SVGID_00000044175129519851769070000007107745209810275221_" gradientUnits="userSpaceOnUse" x1="-1090.5032" y1="2328.6272" x2="-1023.7657" y2="2328.6272">
						<stop  offset="0" style="stop-color:#E1473D"/>
						<stop  offset="1" style="stop-color:#E9605A"/>
					</linearGradient>
					<path style="fill:url(#SVGID_00000044175129519851769070000007107745209810275221_);" d="M-1057.135,2235.411
						c-29.475,22.106-33.369,76.144-33.369,76.144v110.289h34.407h32.331v-110.289
						C-1023.766,2311.555-1027.66,2257.517-1057.135,2235.411z"/>
				</g>
			</g>
			
				<linearGradient id="SVGID_00000132766128690494529790000009612045580459786376_" gradientUnits="userSpaceOnUse" x1="-1414.7069" y1="1665.5638" x2="-1272.2449" y2="1665.5638">
				<stop  offset="0" style="stop-color:#E1473D"/>
				<stop  offset="1" style="stop-color:#E9605A"/>
			</linearGradient>
			
				<circle style="fill:url(#SVGID_00000132766128690494529790000009612045580459786376_);" cx="-1343.476" cy="1665.564" r="71.231"/>
			
				<linearGradient id="SVGID_00000126294976549990889090000001255986515617799073_" gradientUnits="userSpaceOnUse" x1="-1714.499" y1="2146.5513" x2="-960.3651" y2="2146.5513">
				<stop  offset="0" style="stop-color:#09005D"/>
				<stop  offset="1" style="stop-color:#1A0F91"/>
			</linearGradient>
			
				<rect x="-1714.499" y="2141.546" style="fill:url(#SVGID_00000126294976549990889090000001255986515617799073_);" width="754.134" height="10.011"/>
			<g>
				
					<linearGradient id="SVGID_00000096025804443002527430000012356333069903046312_" gradientUnits="userSpaceOnUse" x1="-2160.1953" y1="2584.3489" x2="-1427.4648" y2="918.4215">
					<stop  offset="0" style="stop-color:#FF928E"/>
					<stop  offset="1" style="stop-color:#FE7062"/>
				</linearGradient>
				<polygon style="fill:url(#SVGID_00000096025804443002527430000012356333069903046312_);" points="-1701.151,2510.209 
					-2001.47,2581.799 -2001.47,1253.937 -1701.151,1253.937 				"/>
				
					<linearGradient id="SVGID_00000139269403724791561460000012183299773116905621_" gradientUnits="userSpaceOnUse" x1="-1536.726" y1="-230.3868" x2="-1686.8788" y2="485.3393">
					<stop  offset="0" style="stop-color:#09005D"/>
					<stop  offset="1" style="stop-color:#1A0F91"/>
				</linearGradient>
				<polygon style="fill:url(#SVGID_00000139269403724791561460000012183299773116905621_);" points="-1998.763,1253.937 
					-1839.684,653.17 -1697.484,1253.937 				"/>
				
					<linearGradient id="SVGID_00000005243304117670519510000010035229630354096553_" gradientUnits="userSpaceOnUse" x1="-2028.1653" y1="1253.9369" x2="-1677.7935" y2="1253.9369">
					<stop  offset="0" style="stop-color:#E1473D"/>
					<stop  offset="1" style="stop-color:#E9605A"/>
				</linearGradient>
				<path style="fill:url(#SVGID_00000005243304117670519510000010035229630354096553_);" d="M-1677.793,1248.572
					c0-4.409-3.574-7.983-7.983-7.983h-334.406c-4.409,0-7.983,3.574-7.983,7.983v10.73c0,4.409,3.574,7.983,7.983,7.983h334.406
					c4.409,0,7.983-3.574,7.983-7.983V1248.572z"/>
				
					<linearGradient id="SVGID_00000039846604440372046930000004167890985909973397_" gradientUnits="userSpaceOnUse" x1="-2028.1653" y1="1691.0676" x2="-1677.7935" y2="1691.0676">
					<stop  offset="0" style="stop-color:#E1473D"/>
					<stop  offset="1" style="stop-color:#E9605A"/>
				</linearGradient>
				<path style="fill:url(#SVGID_00000039846604440372046930000004167890985909973397_);" d="M-1677.793,1685.703
					c0-4.409-3.574-7.983-7.983-7.983h-334.406c-4.409,0-7.983,3.574-7.983,7.983v10.73c0,4.409,3.574,7.983,7.983,7.983h334.406
					c4.409,0,7.983-3.574,7.983-7.983V1685.703z"/>
				
					<linearGradient id="SVGID_00000050658737932308714950000008833575563611036579_" gradientUnits="userSpaceOnUse" x1="-2028.1653" y1="2174.9146" x2="-1677.7935" y2="2174.9146">
					<stop  offset="0" style="stop-color:#E1473D"/>
					<stop  offset="1" style="stop-color:#E9605A"/>
				</linearGradient>
				<path style="fill:url(#SVGID_00000050658737932308714950000008833575563611036579_);" d="M-1677.793,2169.55
					c0-4.409-3.574-7.983-7.983-7.983h-334.406c-4.409,0-7.983,3.574-7.983,7.983v10.729c0,4.409,3.574,7.983,7.983,7.983h334.406
					c4.409,0,7.983-3.574,7.983-7.983V2169.55z"/>
				<g>
					
						<linearGradient id="SVGID_00000077296724822835019930000003090360900682625727_" gradientUnits="userSpaceOnUse" x1="-1961.4279" y1="2342.6697" x2="-1891.3534" y2="2342.6697">
						<stop  offset="0" style="stop-color:#E1473D"/>
						<stop  offset="1" style="stop-color:#E9605A"/>
					</linearGradient>
					<path style="fill:url(#SVGID_00000077296724822835019930000003090360900682625727_);" d="M-1926.391,2250.148
						c-29.475,22.106-35.037,76.143-35.037,76.143v108.899h35.823h34.251v-108.899
						C-1891.353,2326.292-1896.916,2272.255-1926.391,2250.148z"/>
					
						<linearGradient id="SVGID_00000106127686531474884100000000387592551261485758_" gradientUnits="userSpaceOnUse" x1="-1824.6158" y1="2342.6697" x2="-1751.2046" y2="2342.6697">
						<stop  offset="0" style="stop-color:#E1473D"/>
						<stop  offset="1" style="stop-color:#E9605A"/>
					</linearGradient>
					<path style="fill:url(#SVGID_00000106127686531474884100000000387592551261485758_);" d="M-1787.91,2250.148
						c-29.475,22.106-36.706,76.143-36.706,76.143v108.899h36.561h36.85v-108.899
						C-1751.205,2326.292-1758.435,2272.255-1787.91,2250.148z"/>
				</g>
				<g>
					
						<linearGradient id="SVGID_00000029019302319361174150000001338100726921027984_" gradientUnits="userSpaceOnUse" x1="-1961.4279" y1="1503.8752" x2="-1891.3534" y2="1503.8752">
						<stop  offset="0" style="stop-color:#E1473D"/>
						<stop  offset="1" style="stop-color:#E9605A"/>
					</linearGradient>
					<path style="fill:url(#SVGID_00000029019302319361174150000001338100726921027984_);" d="M-1926.391,1410.115
						c-29.475,22.106-35.037,76.143-35.037,76.143v111.377h35.823h34.251v-111.377
						C-1891.353,1486.259-1896.916,1432.221-1926.391,1410.115z"/>
					
						<linearGradient id="SVGID_00000050621038980871119930000016573797087452088964_" gradientUnits="userSpaceOnUse" x1="-1824.6158" y1="1503.8752" x2="-1751.2046" y2="1503.8752">
						<stop  offset="0" style="stop-color:#E1473D"/>
						<stop  offset="1" style="stop-color:#E9605A"/>
					</linearGradient>
					<path style="fill:url(#SVGID_00000050621038980871119930000016573797087452088964_);" d="M-1787.91,1410.115
						c-29.475,22.106-36.706,76.143-36.706,76.143v111.377h36.561h36.85v-111.377
						C-1751.205,1486.259-1758.435,1432.221-1787.91,1410.115z"/>
				</g>
				
					<linearGradient id="SVGID_00000089573250508264229660000011992335755878773931_" gradientUnits="userSpaceOnUse" x1="-1951.4172" y1="1926.3174" x2="-1904.7009" y2="1926.3174">
					<stop  offset="0" style="stop-color:#E1473D"/>
					<stop  offset="1" style="stop-color:#E9605A"/>
				</linearGradient>
				<path style="fill:url(#SVGID_00000089573250508264229660000011992335755878773931_);" d="M-1904.701,1742.43
					c0-4.409-3.574-7.983-7.983-7.983h-30.751c-4.409,0-7.983,3.574-7.983,7.983v367.775c0,4.409,3.574,7.983,7.983,7.983h30.751
					c4.409,0,7.983-3.574,7.983-7.983V1742.43z"/>
				
					<linearGradient id="SVGID_00000116208137834343509900000008310910926985916573_" gradientUnits="userSpaceOnUse" x1="-1824.6158" y1="1926.3174" x2="-1777.8997" y2="1926.3174">
					<stop  offset="0" style="stop-color:#E1473D"/>
					<stop  offset="1" style="stop-color:#E9605A"/>
				</linearGradient>
				<path style="fill:url(#SVGID_00000116208137834343509900000008310910926985916573_);" d="M-1777.9,1742.43
					c0-4.409-3.574-7.983-7.983-7.983h-30.751c-4.409,0-7.983,3.574-7.983,7.983v367.775c0,4.409,3.574,7.983,7.983,7.983h30.751
					c4.409,0,7.983-3.574,7.983-7.983V1742.43z"/>
			</g>
			<g>
				
					<linearGradient id="SVGID_00000085968048862462333070000002808768181733107075_" gradientUnits="userSpaceOnUse" x1="-1146.2999" y1="2695.4468" x2="-358.9321" y2="905.2967">
					<stop  offset="0" style="stop-color:#FF928E"/>
					<stop  offset="1" style="stop-color:#FE7062"/>
				</linearGradient>
				
					<rect x="-977.049" y="1253.937" style="fill:url(#SVGID_00000085968048862462333070000002808768181733107075_);" width="296.982" height="1438.193"/>
				
					<linearGradient id="SVGID_00000140717158466827992600000009468880936159463315_" gradientUnits="userSpaceOnUse" x1="-558.0066" y1="-25.0589" x2="-708.1594" y2="690.6672">
					<stop  offset="0" style="stop-color:#09005D"/>
					<stop  offset="1" style="stop-color:#1A0F91"/>
				</linearGradient>
				<polygon style="fill:url(#SVGID_00000140717158466827992600000009468880936159463315_);" points="-976.968,1253.937 
					-817.888,653.17 -675.689,1253.937 				"/>
				
					<linearGradient id="SVGID_00000115514998175251766980000000310798967724520114_" gradientUnits="userSpaceOnUse" x1="-1010.4182" y1="1253.9369" x2="-660.0462" y2="1253.9369">
					<stop  offset="0" style="stop-color:#E1473D"/>
					<stop  offset="1" style="stop-color:#E9605A"/>
				</linearGradient>
				<path style="fill:url(#SVGID_00000115514998175251766980000000310798967724520114_);" d="M-660.046,1248.572
					c0-4.409-3.574-7.983-7.983-7.983h-334.407c-4.409,0-7.983,3.574-7.983,7.983v10.73c0,4.409,3.574,7.983,7.983,7.983h334.407
					c4.409,0,7.983-3.574,7.983-7.983V1248.572z"/>
				
					<linearGradient id="SVGID_00000173861338296410693440000012385501704121953187_" gradientUnits="userSpaceOnUse" x1="-1010.4182" y1="1691.0676" x2="-660.0462" y2="1691.0676">
					<stop  offset="0" style="stop-color:#E1473D"/>
					<stop  offset="1" style="stop-color:#E9605A"/>
				</linearGradient>
				<path style="fill:url(#SVGID_00000173861338296410693440000012385501704121953187_);" d="M-660.046,1685.703
					c0-4.409-3.574-7.983-7.983-7.983h-334.407c-4.409,0-7.983,3.574-7.983,7.983v10.73c0,4.409,3.574,7.983,7.983,7.983h334.407
					c4.409,0,7.983-3.574,7.983-7.983V1685.703z"/>
				
					<linearGradient id="SVGID_00000046338266060418821880000007594388103175964855_" gradientUnits="userSpaceOnUse" x1="-1010.4182" y1="2174.9146" x2="-660.0462" y2="2174.9146">
					<stop  offset="0" style="stop-color:#E1473D"/>
					<stop  offset="1" style="stop-color:#E9605A"/>
				</linearGradient>
				<path style="fill:url(#SVGID_00000046338266060418821880000007594388103175964855_);" d="M-660.046,2169.55
					c0-4.409-3.574-7.983-7.983-7.983h-334.407c-4.409,0-7.983,3.574-7.983,7.983v10.729c0,4.409,3.574,7.983,7.983,7.983h334.407
					c4.409,0,7.983-3.574,7.983-7.983V2169.55z"/>
				<g>
					
						<linearGradient id="SVGID_00000166667972978327637800000017929930794978722215_" gradientUnits="userSpaceOnUse" x1="-940.3438" y1="2342.6697" x2="-866.9326" y2="2342.6697">
						<stop  offset="0" style="stop-color:#E1473D"/>
						<stop  offset="1" style="stop-color:#E9605A"/>
					</linearGradient>
					<path style="fill:url(#SVGID_00000166667972978327637800000017929930794978722215_);" d="M-903.638,2250.148
						c-29.475,22.106-36.706,76.143-36.706,76.143v108.899h36.534h36.877v-108.899
						C-866.933,2326.292-874.163,2272.255-903.638,2250.148z"/>
					
						<linearGradient id="SVGID_00000009549770840993091370000007207632556220186784_" gradientUnits="userSpaceOnUse" x1="-800.195" y1="2342.6697" x2="-733.4575" y2="2342.6697">
						<stop  offset="0" style="stop-color:#E1473D"/>
						<stop  offset="1" style="stop-color:#E9605A"/>
					</linearGradient>
					<path style="fill:url(#SVGID_00000009549770840993091370000007207632556220186784_);" d="M-766.826,2250.148
						c-29.475,22.106-33.369,76.143-33.369,76.143v108.899h33.935h32.803v-108.899
						C-733.458,2326.292-737.351,2272.255-766.826,2250.148z"/>
				</g>
				<g>
					
						<linearGradient id="SVGID_00000074430325009820341600000018144095874557687699_" gradientUnits="userSpaceOnUse" x1="-940.3438" y1="1503.8752" x2="-866.9326" y2="1503.8752">
						<stop  offset="0" style="stop-color:#E1473D"/>
						<stop  offset="1" style="stop-color:#E9605A"/>
					</linearGradient>
					<path style="fill:url(#SVGID_00000074430325009820341600000018144095874557687699_);" d="M-903.638,1410.115
						c-29.475,22.106-36.706,76.143-36.706,76.143v111.377h36.534h36.877v-111.377
						C-866.933,1486.259-874.163,1432.221-903.638,1410.115z"/>
					
						<linearGradient id="SVGID_00000031926228244938145230000005467465542025300868_" gradientUnits="userSpaceOnUse" x1="-800.195" y1="1503.8752" x2="-733.4575" y2="1503.8752">
						<stop  offset="0" style="stop-color:#E1473D"/>
						<stop  offset="1" style="stop-color:#E9605A"/>
					</linearGradient>
					<path style="fill:url(#SVGID_00000031926228244938145230000005467465542025300868_);" d="M-766.826,1410.115
						c-29.475,22.106-33.369,76.143-33.369,76.143v111.377h33.935h32.803v-111.377
						C-733.458,1486.259-737.351,1432.221-766.826,1410.115z"/>
				</g>
				
					<linearGradient id="SVGID_00000074421318224799798090000010149881025199219081_" gradientUnits="userSpaceOnUse" x1="-926.9963" y1="1926.3174" x2="-880.2801" y2="1926.3174">
					<stop  offset="0" style="stop-color:#E1473D"/>
					<stop  offset="1" style="stop-color:#E9605A"/>
				</linearGradient>
				<path style="fill:url(#SVGID_00000074421318224799798090000010149881025199219081_);" d="M-880.28,1742.43
					c0-4.409-3.574-7.983-7.983-7.983h-30.751c-4.409,0-7.983,3.574-7.983,7.983v367.775c0,4.409,3.574,7.983,7.983,7.983h30.751
					c4.409,0,7.983-3.574,7.983-7.983V1742.43z"/>
				
					<linearGradient id="SVGID_00000179640751837231083560000011714892829865201050_" gradientUnits="userSpaceOnUse" x1="-800.195" y1="1926.3174" x2="-753.4788" y2="1926.3174">
					<stop  offset="0" style="stop-color:#E1473D"/>
					<stop  offset="1" style="stop-color:#E9605A"/>
				</linearGradient>
				<path style="fill:url(#SVGID_00000179640751837231083560000011714892829865201050_);" d="M-753.479,1742.43
					c0-4.409-3.574-7.983-7.983-7.983h-30.751c-4.409,0-7.983,3.574-7.983,7.983v367.775c0,4.409,3.574,7.983,7.983,7.983h30.751
					c4.409,0,7.983-3.574,7.983-7.983V1742.43z"/>
			</g>
		</g>
		<path style="fill:#7D97F4;" d="M-3055.554,2582.008c20.168-0.646,372.51,86.306,534.621,55.678
			c194.782-36.773,937.337-212.059,1220.885-150.903c171.296,36.945,400.553-25.582,545.454,98.424
			c230.361,197.156-60.289,518.779-264.704,573.612c-107.846,28.929-220.91,28.765-332.461,28.414
			c-576.383-1.815-1856.406-1.191-1916.255-21.252c-186.213-62.415-223.614-364.981-62.63-477.922
			C-3256.474,2636.024-3060.116,2582.154-3055.554,2582.008z"/>
		
			<linearGradient id="SVGID_00000159467706765063930450000007185436993373164196_" gradientUnits="userSpaceOnUse" x1="-1103.6887" y1="1508.349" x2="-2975.7786" y2="3966.7524">
			<stop  offset="0" style="stop-color:#4F52FF"/>
			<stop  offset="1" style="stop-color:#4042E2"/>
		</linearGradient>
		<path style="fill:url(#SVGID_00000159467706765063930450000007185436993373164196_);" d="M-2642.181,3082.824
			c112.313,1.989,224.978,5.898,336.865,2.116c183.104-6.189,367.205-18.084,545.114-61.833
			c29.485-7.251,59.538-15.739,83.843-33.939c24.304-18.2,41.928-48.312,37.109-78.29c-8.344-51.897-97.535-62.559-136.331-83.456
			c-33.802-18.207-64.876-51.791-60.445-89.928c5.028-43.278,51.844-68.475,94.486-77.42c97.288-20.411,198.55,4.736,297.483-4.955
			c14.445-1.415,30.704-4.752,38.262-17.143c10.51-17.229-3.733-40.261-21.95-48.947c-18.217-8.686-39.304-8.606-58.67-14.285
			c-19.366-5.679-39.048-21.226-37.662-41.36c1.739-25.267,32.636-35.91,57.684-39.657c28.459-4.258,57.135-7.905,85.846-9.831
			c-44.435,10.544-58.992,50.045-10.388,70.602c29.939,12.662,62.207,21.632,87.683,41.823
			c17.211,13.641,30.867,38.957,17.966,56.73c-3.038,4.186-7.235,7.374-11.489,10.318c-45.254,31.314-100.333,39.865-153.329,49.132
			c-19.46,3.403-114.696,12.156-116.983,36.578c-1.365,14.58,15.441,23.228,29.134,28.444
			c60.98,23.229,116.591,60.427,161.342,107.92c23.056,24.469,43.643,52.394,53.002,84.684
			c40.391,139.353-164.382,182.407-260.169,200.277c-190.409,35.521-388.835,26.774-582.194,31.675
			c-270.307,0-541.635,13.118-812.667,10.962c-95.842-0.762-194.956-2.818-282.007-42.924c-12.269-5.653-25.36-13.394-28.977-26.409
			c-11.154-40.137,94.055-41.147,115.019-44.028c84.287-11.596,168.727-6.281,253.165-12.276
			C-2829.033,3080.843-2735.729,3081.167-2642.181,3082.824z"/>
		<g>
			
				<linearGradient id="SVGID_00000099627980641021204610000008736801928179080883_" gradientUnits="userSpaceOnUse" x1="-1668.0338" y1="899.9479" x2="-2206.7458" y2="1654.144">
				<stop  offset="0" style="stop-color:#FF928E"/>
				<stop  offset="1" style="stop-color:#FE7062"/>
			</linearGradient>
			<path style="fill:url(#SVGID_00000099627980641021204610000008736801928179080883_);" d="M-2288.931,2211.034h-250.946
				c-8.448,0-15.297-6.849-15.297-15.297v-488.365c0-12.508,10.139-22.647,22.647-22.647h243.596V2211.034z"/>
			
				<linearGradient id="SVGID_00000062878391557967696370000014407045644827564695_" gradientUnits="userSpaceOnUse" x1="-1745.8939" y1="874.3839" x2="-2271.4263" y2="1610.1285">
				<stop  offset="0" style="stop-color:#FF928E"/>
				<stop  offset="1" style="stop-color:#FE7062"/>
			</linearGradient>
			<path style="fill:url(#SVGID_00000062878391557967696370000014407045644827564695_);" d="M-2579.979,1881.766l27.794-156.047
				c4.66-26.164,26.431-45.861,52.929-47.889l124.143-9.496l67.577,279.545l-241.811-25.395
				C-2569.441,1920.375-2583.522,1901.657-2579.979,1881.766z"/>
			
				<linearGradient id="SVGID_00000026127708713077692380000006145668813211683499_" gradientUnits="userSpaceOnUse" x1="-1946.5752" y1="1080.5922" x2="-2292.4741" y2="1570.2726">
				<stop  offset="0" style="stop-color:#4F52FF"/>
				<stop  offset="1" style="stop-color:#4042E2"/>
			</linearGradient>
			<path style="fill:url(#SVGID_00000026127708713077692380000006145668813211683499_);" d="M-2203.351,1646.074
				c13.181-20.842,14.914-42.105,18.353-65.995c7.321-50.857,21.526-81.467,10.011-131.665
				c-4.525-19.727-21.04-63.095-35.716-78.097c-14.676-15.001-51.447-17.004-71.064-7.933
				c-24.514,11.336-30.119,44.182-30.864,69.362c-1.834,61.945,30.679,115.487,34.195,177.366
				c0.652,11.478-9.97,5.669-13.897,16.885c-4.219,12.048-8.246,19.431-12.235,27.251c-9.294,18.22,7.696,21.635,20.577,21.557
				C-2251.957,1674.614-2219.017,1670.843-2203.351,1646.074z"/>
			
				<rect x="-2053.926" y="1556.425" transform="matrix(0.7071 -0.7071 0.7071 0.7071 -1702.3796 -995.6872)" style="fill:#F0F0F0;" width="1.671" height="1.371"/>
			<g>
				
					<linearGradient id="SVGID_00000002384156182591956130000009606861049305801351_" gradientUnits="userSpaceOnUse" x1="-1698.978" y1="5538.1968" x2="-1549.9656" y2="3796.6118" gradientTransform="matrix(-0.7539 -0.657 -0.657 0.7539 -766.4053 -1937.2426)">
					<stop  offset="0" style="stop-color:#FEBBBA"/>
					<stop  offset="1" style="stop-color:#FF928E"/>
				</linearGradient>
				<path style="fill:url(#SVGID_00000002384156182591956130000009606861049305801351_);" d="M-2480.236,2588.522l-28.199,46.161
					c0,0-224.908,211.898-309.786,301.087c-13.308,13.983-22.067,31.629-25.233,50.67l-16.517,99.311l-49.14-147.826l10.825-9.612
					l34.313-12.824l204.624-278.619c12.02-16.368,28.502-28.926,47.473-36.173l55.17-21.074L-2480.236,2588.522z"/>
				
					<linearGradient id="SVGID_00000124844702962989156430000007919975012918931360_" gradientUnits="userSpaceOnUse" x1="-1848.6556" y1="1500.802" x2="-2125.6162" y2="1881.2063">
					<stop  offset="0" style="stop-color:#09005D"/>
					<stop  offset="1" style="stop-color:#1A0F91"/>
				</linearGradient>
				<path style="fill:url(#SVGID_00000124844702962989156430000007919975012918931360_);" d="M-2837.953,2860.074
					c4.66,32.065,26.388,47.02,52.694,57.385l287.708-289.241l150.952-358.968l34.53-212.769l-62.025-15.523
					c-140.823,27.3-159.215,299.767-189.104,541.145C-2653.353,2580.481-2742.959,2723.89-2837.953,2860.074z"/>
				
					<linearGradient id="SVGID_00000049194044840689916590000005798289575860003510_" gradientUnits="userSpaceOnUse" x1="-2578.3499" y1="2760.2017" x2="-2983.2244" y2="3111.686">
					<stop  offset="0" style="stop-color:#FF928E"/>
					<stop  offset="1" style="stop-color:#FE7062"/>
				</linearGradient>
				<path style="fill:url(#SVGID_00000049194044840689916590000005798289575860003510_);" d="M-2867.869,2913.238
					c0,0-69.712,11.194-52.716,63.313c16.995,52.118,43.054,148.425,77.045,129.164c33.99-19.261-4.951-126.024,12.183-152.543
					C-2863.811,2927.805-2867.869,2913.238-2867.869,2913.238z"/>
			</g>
			<g>
				
					<linearGradient id="SVGID_00000063614304277840195410000016909346912636832941_" gradientUnits="userSpaceOnUse" x1="144.9729" y1="3568.7842" x2="293.9863" y2="1827.1888" gradientTransform="matrix(-1 0 0 1 -2140.7312 0)">
					<stop  offset="0" style="stop-color:#FEBBBA"/>
					<stop  offset="1" style="stop-color:#FF928E"/>
				</linearGradient>
				<path style="fill:url(#SVGID_00000063614304277840195410000016909346912636832941_);" d="M-2302.689,2568.422l9.066,53.328
					c0,0-30.359,307.511-35.759,430.514c-0.847,19.284,4.142,38.342,14.263,54.779l52.79,85.724l-134.163-79.168l-2.67-16.372
					l21.962-30.196l-28.766-344.487c-1.69-20.237,2.486-40.533,12.028-58.459l27.75-52.132L-2302.689,2568.422z"/>
				
					<linearGradient id="SVGID_00000018194916547594157460000017213479158813883536_" gradientUnits="userSpaceOnUse" x1="-1665.6965" y1="1634.0093" x2="-1942.6569" y2="2014.4133">
					<stop  offset="0" style="stop-color:#09005D"/>
					<stop  offset="1" style="stop-color:#1A0F91"/>
				</linearGradient>
				<path style="fill:url(#SVGID_00000018194916547594157460000017213479158813883536_);" d="M-2214.739,2056.481
					c30.978,57.714-3.01,221.328-77.308,556.46l-34.322,386.621c-21.783,17.872-44.493,24.089-68.178,18.067
					c-22.28-192.859-30.289-331.97,21.878-411.801l12.404-320.729l47.281-220.169L-2214.739,2056.481z"/>
				
					<linearGradient id="SVGID_00000095335955649819275330000004513537661916464538_" gradientUnits="userSpaceOnUse" x1="-2199.9749" y1="2827.2288" x2="-2371.2681" y2="3283.2683">
					<stop  offset="0" style="stop-color:#FF928E"/>
					<stop  offset="1" style="stop-color:#FE7062"/>
				</linearGradient>
				<path style="fill:url(#SVGID_00000095335955649819275330000004513537661916464538_);" d="M-2386.928,3080.406
					c0,0-59.123,60.943-14.194,74.753c44.928,13.81,161.243,60.071,168.356,37.608c8.88-28.041-93.673-112.361-93.673-112.361
					C-2344.057,3089.556-2374.947,3090.936-2386.928,3080.406z"/>
			</g>
			
				<linearGradient id="SVGID_00000061447141555831449270000004908935035857030023_" gradientUnits="userSpaceOnUse" x1="-1772.3301" y1="1077.0313" x2="-2059.302" y2="1504.152">
				<stop  offset="0" style="stop-color:#4F52FF"/>
				<stop  offset="1" style="stop-color:#4042E2"/>
			</linearGradient>
			<path style="fill:url(#SVGID_00000061447141555831449270000004908935035857030023_);" d="M-2374.094,2040.958
				c31.15-132-3.482-241.327-28.926-297.914c-12.771-28.402-0.527-62.013,27.908-74.71c48.223-21.533,101.589-23.102,130.05-22.003
				c13.446,0.519,26.318,5.441,36.769,13.917c31.013,25.152,94.692,84.535,83.173,140.103
				c-8.866,42.761-89.618,256.13-89.618,256.13S-2289.409,2091.821-2374.094,2040.958z"/>
			
				<linearGradient id="SVGID_00000051368272588658531560000005170446760618259129_" gradientUnits="userSpaceOnUse" x1="93.5318" y1="1858.785" x2="122.0517" y2="1650.1405" gradientTransform="matrix(-1 0 0 1 -2140.7312 0)">
				<stop  offset="0" style="stop-color:#FEBBBA"/>
				<stop  offset="1" style="stop-color:#FF928E"/>
			</linearGradient>
			<path style="fill:url(#SVGID_00000051368272588658531560000005170446760618259129_);" d="M-2287.422,1505.715l-37.343,155.511
				c-3.571,14.758,9.823,19.359,24.845,21.56c35.311,5.175,62.047-8.193,66.454-33.106c0.385-2.179,1.606-4.123,1.908-6.315
				l16.025-116.176c1.271-9.217-3.711-18.163-12.218-21.934l-30.923-13.712C-2270.58,1486.262-2284.36,1493.056-2287.422,1505.715z"
				/>
			
				<linearGradient id="SVGID_00000122696779903339766560000007536855542574744734_" gradientUnits="userSpaceOnUse" x1="-1699.9495" y1="907.199" x2="-2225.4814" y2="1642.9431">
				<stop  offset="0" style="stop-color:#FF928E"/>
				<stop  offset="1" style="stop-color:#FE7062"/>
			</linearGradient>
			<path style="fill:url(#SVGID_00000122696779903339766560000007536855542574744734_);" d="M-2402.824,1680.835
				c84.125,129.004,89.661,280.517,63.387,290.514c115.325-23.208,76.835-201.309-11.929-311.982
				C-2370.242,1657.947-2389.551,1664.244-2402.824,1680.835z"/>
			
				<linearGradient id="SVGID_00000153675627955716615800000000786811003382897826_" gradientUnits="userSpaceOnUse" x1="9309.1348" y1="973.9873" x2="9552.665" y2="1139.4042" gradientTransform="matrix(-0.991 0.1338 0.1338 0.991 6930.0884 -782.9296)">
				<stop  offset="0" style="stop-color:#FEBBBA"/>
				<stop  offset="1" style="stop-color:#FF928E"/>
			</linearGradient>
			<path style="fill:url(#SVGID_00000153675627955716615800000000786811003382897826_);" d="M-2252.6,1379.497
				c0,0,52.53,14.277,96.017,81.53c43.487,67.254,22.727,103.819-8.356,112.649c-31.082,8.831-78.579,14.536-134.983-25.087
				C-2356.325,1508.967-2320.563,1363.343-2252.6,1379.497z"/>
			
				<linearGradient id="SVGID_00000036950517228126481110000018204545168030546054_" gradientUnits="userSpaceOnUse" x1="9279.8135" y1="2952.0574" x2="9299.4229" y2="2700.4014" gradientTransform="matrix(-0.991 0.1338 0.1338 0.991 6930.0884 -782.9296)">
				<stop  offset="0" style="stop-color:#09005D"/>
				<stop  offset="1" style="stop-color:#1A0F91"/>
			</linearGradient>
			<path style="fill:url(#SVGID_00000036950517228126481110000018204545168030546054_);" d="M-2258.424,1509.161
				c0,0-55.124-100.084,37.862-113.901l31.087,25.111c0,0-12.089-61.028-71.941-81.263c-59.852-20.235-105.466,1.313-119.136,80.115
				c-13.671,78.801,6.891,125.718,51.488,156.516c44.598,30.799,55.432-12.411,55.432-12.411s-26.194-30.902-19.832-50.184
				c6.362-19.283,29.618-0.187,29.618-0.187L-2258.424,1509.161z"/>
			
				<linearGradient id="SVGID_00000054980559221294119820000010077522683858103687_" gradientUnits="userSpaceOnUse" x1="-2436.9006" y1="1503.5083" x2="-2182.2524" y2="1503.5083">
				<stop  offset="0" style="stop-color:#4F52FF"/>
				<stop  offset="1" style="stop-color:#4042E2"/>
			</linearGradient>
			<path style="fill:url(#SVGID_00000054980559221294119820000010077522683858103687_);" d="M-2226.498,1680.918
				c2.389-0.347,4.656-0.97,6.726-1.956c9.466-4.512,20.081-15.147,25.435-23.943c6.404-10.522,11.532-24.652,12.06-36.996
				c0.713-16.684-14.26-16.548-26.247-20.521c-16.97-5.625-34.289-13.352-47.088-26.162c-7.295-7.302-12.907-16.095-18.104-25.012
				c-9.909-17.004-18.616-34.971-22.738-54.215c-8.475-39.571,7.188-79.74,47.756-92.792c12.565-4.043,27.493-5.677,40.662-4.391
				c11.413,1.115,11.771,6.052,18.076,14.599c2.94-18.084-11.921-38.396-23.646-50.698c-12.667-13.29-29.393-22.231-46.88-27.407
				c-32.922-9.743-73.996-7.998-102.202,13.443c-32.343,24.586-56.047,64.704-67.5,103.216c-5.149,17.315-8.48,37.957-5.718,55.983
				c3.708,24.195,24.458,47.926,38.677,66.793c19.725,26.172,39.783,52.686,65.776,72.646
				c22.088,16.961,48.156,28.636,75.448,34.105C-2247.463,1679.321-2236.017,1682.303-2226.498,1680.918z"/>
			
				<linearGradient id="SVGID_00000109734761267011791000000011532499598632533950_" gradientUnits="userSpaceOnUse" x1="-2083.2188" y1="1417.1328" x2="-2108.8018" y2="1736.3607">
				<stop  offset="0" style="stop-color:#FEBBBA"/>
				<stop  offset="1" style="stop-color:#FF928E"/>
			</linearGradient>
			<path style="fill:url(#SVGID_00000109734761267011791000000011532499598632533950_);" d="M-2151.87,1796.642
				c0,0,1.442-25.493,6.358-45.681s27.251-47.878,27.251-37.364c0,10.514,0,9.448,0,9.448s31.741-61.048,41.573-48.693
				c9.832,12.355,17.542,58.32-20.658,132.271c-1.877,3.634-16.217,24.71-16.217,24.71L-2151.87,1796.642z"/>
			
				<linearGradient id="SVGID_00000129183733236790836890000005742811427428580799_" gradientUnits="userSpaceOnUse" x1="-2305.9395" y1="1878.1207" x2="-1865.4713" y2="750.2574">
				<stop  offset="0" style="stop-color:#4F52FF"/>
				<stop  offset="1" style="stop-color:#4042E2"/>
			</linearGradient>
			<path style="fill:url(#SVGID_00000129183733236790836890000005742811427428580799_);" d="M-2410.507,1685.358
				c0.68-10.767,14.646-14.49,20.593-5.488c30.147,45.642,88.502,144.689,109.675,255.491c0,0,9.031-3.363,20.371-11.115
				c11.34-7.752,103.734-82.819,106.641-118.672l41.597,39.668c0,0-76.573,211.265-173.475,180.257
				c-63.28-20.25-108.437-105.479-132.155-162.186c-18.199-43.511-22.272-91.956-9.646-137.398
				C-2422.951,1711.684-2417.59,1698.115-2410.507,1685.358z"/>
			
				<linearGradient id="SVGID_00000149360925297967115500000005694387601802330287_" gradientUnits="userSpaceOnUse" x1="-2047.8632" y1="1711.2117" x2="-2219.1563" y2="1910.3119">
				<stop  offset="0" style="stop-color:#FEBBBA"/>
				<stop  offset="1" style="stop-color:#FF928E"/>
			</linearGradient>
			<path style="fill:url(#SVGID_00000149360925297967115500000005694387601802330287_);" d="M-2154.144,1811.45
				c0,0-0.608-26.771,9.083-41.791c9.69-15.02,18.896-41.183,21.803-28.102c2.907,13.082,0,2.423,0,2.423
				s25.679-55.234,38.761-39.73c13.082,15.505,30.524,45.544,9.69,90.119s-36.823,53.296-36.823,53.296L-2154.144,1811.45z"/>
			
				<linearGradient id="SVGID_00000020395201761495635490000011608916924065843636_" gradientUnits="userSpaceOnUse" x1="-2293.9895" y1="1589.5432" x2="-2321.8367" y2="1708.2605">
				<stop  offset="0" style="stop-color:#4F52FF"/>
				<stop  offset="1" style="stop-color:#4042E2"/>
			</linearGradient>
			<path style="fill:url(#SVGID_00000020395201761495635490000011608916924065843636_);" d="M-2402.823,1640.596
				c-0.038,6.387,0.887,12.032,2.824,15.671c5.922,11.124,18.39,17.204,30.346,21.765c22.803,8.697,47.968,14.848,72.95,15.214
				c21.616,0.316,65.497-1.844,81.366-18.134c-11.941-8.877-39.98-12.404-54.167-17.052c-14.684-4.812-29.473-9.668-42.95-17.124
				c-20.601-11.397-37.189-28.322-57.15-40.633C-2390.906,1587.164-2402.691,1618.369-2402.823,1640.596z"/>
		</g>
		<g>
			
				<linearGradient id="SVGID_00000145746270949195506120000017660809886182054827_" gradientUnits="userSpaceOnUse" x1="-2753.2227" y1="1507.6178" x2="-2438.0999" y2="1507.6178">
				<stop  offset="0" style="stop-color:#FEBBBA"/>
				<stop  offset="1" style="stop-color:#FF928E"/>
			</linearGradient>
			<path style="fill:url(#SVGID_00000145746270949195506120000017660809886182054827_);" d="M-2438.1,1334.899
				c-16.006-19.332-36.263-10.187-36.263-10.187c-23.977,101.282-149.698,183.403-278.86,223.544
				c8.435,35.917,27.856,96.678,69.05,144.429C-2469.818,1572.162-2438.1,1334.899-2438.1,1334.899z"/>
			<g>
				
					<linearGradient id="SVGID_00000160184665254388021200000012287277526654938021_" gradientUnits="userSpaceOnUse" x1="12956.0771" y1="1454.7959" x2="13167.5322" y2="1935.9034" gradientTransform="matrix(-1 0 0 1 10447.7783 0)">
					<stop  offset="0" style="stop-color:#FEBBBA"/>
					<stop  offset="1" style="stop-color:#FF928E"/>
				</linearGradient>
				<path style="fill:url(#SVGID_00000160184665254388021200000012287277526654938021_);" d="M-2441.985,1339.815
					c1.675,5.324-17.719,13.431-29.138-8.344c-0.399-10.436-6.746-55.146-0.51-63.648c33.213-45.281,97.606-102.043,97.606-102.043
					c10.883,10.738,1.917,21.287,1.917,21.287l-31.237,32.542c6.533,11.807,14.503,21.774,18.238,36.056
					c2.829,10.816,1.099,22.374-4.365,32.217c-5.483,9.879-12.964,22.72-20.036,32.77
					C-2422.896,1339.672-2441.985,1339.815-2441.985,1339.815z"/>
				
					<linearGradient id="SVGID_00000004527089672999775330000001633585796299694475_" gradientUnits="userSpaceOnUse" x1="-2439.6123" y1="1294.5697" x2="-2351.3809" y2="1158.9137">
					<stop  offset="0" style="stop-color:#FEBBBA"/>
					<stop  offset="1" style="stop-color:#FF928E"/>
				</linearGradient>
				<path style="fill:url(#SVGID_00000004527089672999775330000001633585796299694475_);" d="M-2417.011,1240.724l-28.466,24.132
					l-8.938,24.027l25.381,28.156c0,0,8.533-47.672,14.876-57.991C-2407.815,1248.73-2411.104,1243.741-2417.011,1240.724z"/>
			</g>
			
				<linearGradient id="SVGID_00000038396982842572851330000011106710372187713468_" gradientUnits="userSpaceOnUse" x1="-2073.2029" y1="640.5889" x2="-2598.7346" y2="1376.3328">
				<stop  offset="0" style="stop-color:#FF928E"/>
				<stop  offset="1" style="stop-color:#FE7062"/>
			</linearGradient>
			<path style="fill:url(#SVGID_00000038396982842572851330000011106710372187713468_);" d="M-2931.338,1616.119
				c56.659-18.47,146.674-42.22,202.208-75.856c-1.376,38.71,22.665,87.121,66.584,143.514c3.274,4.204,0.195,8.418-3.839,11.902
				c-55.966,48.316-121.64,77.015-178.839,110.055L-2931.338,1616.119z"/>
			
				<linearGradient id="SVGID_00000150093815743091753810000004531891476355318961_" gradientUnits="userSpaceOnUse" x1="-2969.1169" y1="1536.4708" x2="-3366.7915" y2="2301.2307">
				<stop  offset="0" style="stop-color:#4F52FF"/>
				<stop  offset="1" style="stop-color:#4042E2"/>
			</linearGradient>
			<path style="fill:url(#SVGID_00000150093815743091753810000004531891476355318961_);" d="M-3074.31,2262.691h-222.018
				c-26.71,0-48.363-21.653-48.363-48.363c-42.126-147.704-27.847-317.018,16.54-503.126
				c13.471-56.482,63.804-96.448,121.871-96.448h131.97V2262.691z"/>
			
				<linearGradient id="SVGID_00000128471522228125556950000011581268659449500066_" gradientUnits="userSpaceOnUse" x1="-3026.873" y1="1551.5812" x2="-3424.4285" y2="1949.1365">
				<stop  offset="0" style="stop-color:#4F52FF"/>
				<stop  offset="1" style="stop-color:#4042E2"/>
			</linearGradient>
			<path style="fill:url(#SVGID_00000128471522228125556950000011581268659449500066_);" d="M-3201.205,1613.369
				c-59.033,0.818-110.221,41.033-124.989,98.195l-47.631,184.366c-6.324,29.976,12.479,59.508,42.316,66.46l36.498,8.505
				c10.404,2.424,20.944-3.464,24.335-13.594l106.062-316.886c4.528-13.527-5.659-27.474-19.923-27.276L-3201.205,1613.369z"/>
			<g>
				
					<linearGradient id="SVGID_00000078745059381112055450000007487401962238189735_" gradientUnits="userSpaceOnUse" x1="-2839.7932" y1="2465.1179" x2="-3773.8276" y2="3531.5347">
					<stop  offset="0" style="stop-color:#09005D"/>
					<stop  offset="1" style="stop-color:#1A0F91"/>
				</linearGradient>
				<path style="fill:url(#SVGID_00000078745059381112055450000007487401962238189735_);" d="M-2906.163,2188.262l-210.437-7.58
					c0,0-47.838,69.083-48.975,85.569c-0.601,8.711-1.038,17.02-1.342,24.994l-38.367,348.181
					c-1.246,11.3-4.939,22.195-10.825,31.923l-143.982,246.294c-5.185,8.03-17.263,21.962-11.33,29.458
					c6.832,8.636,5.715,24.089,21.527,30.592c5.953,2.447,33.742-25.45,37.984-30.29l214.941-245.309
					c7.072-8.07,12.112-17.712,14.7-28.125l61.507-228.847c38.966,114.588,85.197,493.756,93.482,569.96
					c0.867,7.978,4.672,92.504,12.666,93.215c14.973,1.331,28.8-3.297,41.283-5.143c8.47-1.257,5.6-65.34,6.151-73.886
					C-2836.958,2560.59-2906.163,2188.262-2906.163,2188.262z"/>
				
					<linearGradient id="SVGID_00000079455387594712295230000012827465214958840467_" gradientUnits="userSpaceOnUse" x1="-3438.4385" y1="3176.6479" x2="-3171.4883" y2="2555.9885">
					<stop  offset="0" style="stop-color:#09005D"/>
					<stop  offset="1" style="stop-color:#1A0F91"/>
				</linearGradient>
				<path style="fill:url(#SVGID_00000079455387594712295230000012827465214958840467_);" d="M-3371.955,2937.041
					c0,0-69.712,11.194-52.716,63.312c16.995,52.119,43.054,148.425,77.045,129.164c33.99-19.261-18.397-131.983,8.66-157.049
					C-3371.42,2947.102-3371.955,2937.041-3371.955,2937.041z"/>
				
					<linearGradient id="SVGID_00000142171067875161871580000010037972313085088406_" gradientUnits="userSpaceOnUse" x1="-2957.2754" y1="3063.3855" x2="-2369.718" y2="3650.9429">
					<stop  offset="0" style="stop-color:#09005D"/>
					<stop  offset="1" style="stop-color:#1A0F91"/>
				</linearGradient>
				<path style="fill:url(#SVGID_00000142171067875161871580000010037972313085088406_);" d="M-2917.081,3102.325
					c0,0-45.321,65.714,0,78.177c45.32,12.463,135.961,45.01,160.887,20.24c24.927-24.772-115.153-102.763-115.153-102.763
					C-2888.684,3107.65-2904.791,3112.492-2917.081,3102.325z"/>
			</g>
			<g>
				
					<linearGradient id="SVGID_00000080921055259747399370000010435453408929625750_" gradientUnits="userSpaceOnUse" x1="-2115.3193" y1="609.9387" x2="-2640.8513" y2="1345.6831">
					<stop  offset="0" style="stop-color:#FF928E"/>
					<stop  offset="1" style="stop-color:#FE7062"/>
				</linearGradient>
				<path style="fill:url(#SVGID_00000080921055259747399370000010435453408929625750_);" d="M-2808.952,1787.016
					c22.089-81.035-30.979-162.922-113.815-176.806c-92.261-15.465-186.359-0.471-232.583,2.523
					c-23.466,1.521-45.461,11.709-61.884,28.537c-65.132,66.736-210.378,251.45-64.982,455.283
					c20.792-9.945,50.461-26.116,71.131-45.659c-14.415-50.078-12.036-112.809,29.07-187.417c0.877,6.166,2.05,12.287,3.561,18.333
					c40.556,162.111,35.222,294.653,33.256,325.246c-0.261,4.055,1.843,7.987,5.512,9.731
					c64.424,30.635,171.141,24.231,214.3,20.453c7.902-0.692,24.704-1.882,27.068-9.455
					C-2866.701,2126.496-2844.047,1915.761-2808.952,1787.016z"/>
				
					<linearGradient id="SVGID_00000098182469963634719380000002804671147071377572_" gradientUnits="userSpaceOnUse" x1="-2271.6702" y1="498.8244" x2="-2797.2019" y2="1234.5682">
					<stop  offset="0" style="stop-color:#FF928E"/>
					<stop  offset="1" style="stop-color:#FE7062"/>
				</linearGradient>
				<path style="fill:url(#SVGID_00000098182469963634719380000002804671147071377572_);" d="M-3179.663,1847.561
					c-18.224-64.917-9.133-138.334-6.597-155.534c0.304-2.061,2.248-3.442,4.3-3.08l0,0c1.974,0.348,3.315,2.179,3.022,4.162
					c-2.455,16.626-11.461,88.836,6.405,152.447c0.547,1.946-0.542,3.963-2.479,4.541l-0.004,0.001
					C-3176.997,1850.688-3179.105,1849.551-3179.663,1847.561z"/>
			</g>
			<g>
				
					<linearGradient id="SVGID_00000128444469915217209290000006571360004129444014_" gradientUnits="userSpaceOnUse" x1="-2865.1091" y1="1747.886" x2="-3259.8047" y2="2299.5632">
					<stop  offset="0" style="stop-color:#FEBBBA"/>
					<stop  offset="1" style="stop-color:#FF928E"/>
				</linearGradient>
				<path style="fill:url(#SVGID_00000128444469915217209290000006571360004129444014_);" d="M-3211.085,2050.894
					c-20.67,19.543-50.34,35.715-71.131,45.659c27.785,38.952,66.174,78.602,117.774,118.262l6.212,16.573
					c4.608,12.298,12.986,22.823,23.935,30.073l20.85,13.808c11.357,7.518,26.349,6.469,36.546-2.561l9.038-8.005
					c8.266-7.32,9.402-19.811,2.592-28.501l-25.714-32.815c-4.492-5.734-36.46-10.739-42.479-14.843
					C-3155.952,2173.211-3189.325,2126.485-3211.085,2050.894z"/>
			</g>
			
				<linearGradient id="SVGID_00000145042160480562258310000009250695528376516028_" gradientUnits="userSpaceOnUse" x1="-2986.1863" y1="1374.5084" x2="-3024.2917" y2="2919.8809">
				<stop  offset="0" style="stop-color:#FEBBBA"/>
				<stop  offset="1" style="stop-color:#FF928E"/>
			</linearGradient>
			<path style="fill:url(#SVGID_00000145042160480562258310000009250695528376516028_);" d="M-3027.084,1458.302l-25.737,155.696
				c-0.671,4.205,1.874,8.247,5.967,9.422c19.485,5.594,70.471,20.555,115.516-7.301l-13.543-126.992L-3027.084,1458.302z"/>
			
				<linearGradient id="SVGID_00000175316610797289764250000007680160236495130795_" gradientUnits="userSpaceOnUse" x1="-3214.3293" y1="2414.2004" x2="-3100.0439" y2="1286.7925">
				<stop  offset="0" style="stop-color:#4F52FF"/>
				<stop  offset="1" style="stop-color:#4042E2"/>
			</linearGradient>
			<path style="fill:url(#SVGID_00000175316610797289764250000007680160236495130795_);" d="M-3190.925,1622.179
				c84.125,129.004,18.526,378.773-7.747,388.771c115.325-23.208,123.49-231.08,59.205-410.238
				C-3158.343,1599.291-3177.652,1605.588-3190.925,1622.179z"/>
			<g>
				<g>
					
						<linearGradient id="SVGID_00000170266188635970198060000012783612800874836156_" gradientUnits="userSpaceOnUse" x1="648.4608" y1="-0.1291" x2="460.5262" y2="248.493" gradientTransform="matrix(0.7334 -0.6798 0.6798 0.7334 -3460.1411 1785.7091)">
						<stop  offset="0" style="stop-color:#FEBBBA"/>
						<stop  offset="1" style="stop-color:#FF928E"/>
					</linearGradient>
					<path style="fill:url(#SVGID_00000170266188635970198060000012783612800874836156_);" d="M-2958.333,1318.923
						c1.685,1.817,65.906,152.524,65.906,152.524l-86.831,34.84l-82.091-133.795
						C-3061.348,1372.492-2986.529,1288.5-2958.333,1318.923z"/>
					
						<linearGradient id="SVGID_00000108310321613352060620000001648015183129623428_" gradientUnits="userSpaceOnUse" x1="504.9343" y1="59.5772" x2="729.4292" y2="59.5772" gradientTransform="matrix(0.7334 -0.6798 0.6798 0.7334 -3460.1411 1785.7091)">
						<stop  offset="0" style="stop-color:#09005D"/>
						<stop  offset="1" style="stop-color:#1A0F91"/>
					</linearGradient>
					<path style="fill:url(#SVGID_00000108310321613352060620000001648015183129623428_);" d="M-3024.396,1378.564
						c-1.765,3.777-1.692,8.132,0.204,11.845l37.153,72.749c0.564,1.104,1.256,2.115,2.104,3.019
						c4.673,4.987,20.826,19.664,35.283,2.17c12.323-14.911,23.852-28.445,35.565-33.551c6.84-2.982,14.782,0.314,17.681,7.19
						c5.973,14.162,17.447,42.983,24.046,70.02c1.653,6.777-2.257,13.665-8.885,15.837c-17.491,5.734-51.984,15.908-82.117,17.99
						c-4.951,0.343-9.664-2.058-12.309-6.254c-11.642-18.472-44.485-70.113-55.999-83.264c-10.697-12.218-32.176-9.353-41.908-7.261
						c-3.694,0.794-7.519,0.028-10.615-2.137c-9.287-6.494-25.196-22.175-8.056-45.714c4.262-5.852,2.858-14.131-2.905-18.512
						c-10.327-7.851-21.149-22.004-8.494-42.861c12.811-21.115,33.154-21.7,46.802-19.078c6.039,1.16,12.44-1.612,15.164-7.125
						c1.211-2.452,3.413-4.462,7.29-4.978c7.314-0.971,12.499-7.245,11.577-14.565c-1.581-12.551,1.345-28.516,21.862-38.039
						c37.632-17.465,67.183,17.196,73.389,45.176c6.206,27.981-35.67,44.597-61.4,46.091
						C-3007.863,1348.409-3019.532,1368.157-3024.396,1378.564z"/>
					
						<linearGradient id="SVGID_00000094607296300532640030000001351176480190969505_" gradientUnits="userSpaceOnUse" x1="373.2057" y1="196.7604" x2="523.949" y2="42.1018" gradientTransform="matrix(0.7334 -0.6798 0.6798 0.7334 -3460.1411 1785.7091)">
						<stop  offset="0" style="stop-color:#FEBBBA"/>
						<stop  offset="1" style="stop-color:#FF928E"/>
					</linearGradient>
					<path style="fill:url(#SVGID_00000094607296300532640030000001351176480190969505_);" d="M-3017.674,1483.055
						c0,0-12.906-48.291-33.668-47.969c-20.763,0.323-38.414,19.78-14.408,44.646
						C-3035.889,1510.663-3017.674,1483.055-3017.674,1483.055z"/>
				</g>
			</g>
		</g>
	</g>
</g>
</svg>
