<?xml version="1.0" encoding="utf-8"?>
<!-- Generator: Adobe Illustrator 27.5.0, SVG Export Plug-In . SVG Version: 6.00 Build 0)  -->
<svg version="1.1" xmlns="http://www.w3.org/2000/svg" xmlns:xlink="http://www.w3.org/1999/xlink" x="0px" y="0px"
	 viewBox="0 0 2500 2500" style="enable-background:new 0 0 2500 2500;" xml:space="preserve">
<g id="Background">
	<rect style="fill:#FFFFFF;" width="2500" height="2500"/>
</g>
<g id="Illustration">
	<g id="Holy_bible_1_">
		<circle style="fill:#F2E6DC;" cx="1250" cy="1250" r="915"/>
		<g>
			<g>
				<path style="fill:#F7F1EB;" d="M1959.95,1884.988c-0.367,0-0.739-0.09-1.081-0.284l-574.225-323.816
					c0.21,0.347,0.32,0.745,0.32,1.143c0.001,0.469-0.147,0.941-0.453,1.341c-0.019,0.026-0.039,0.05-0.059,0.075l330.023,292.33
					c0.491,0.435,0.743,1.04,0.743,1.649c0.001,0.519-0.182,1.042-0.554,1.462c-0.808,0.911-2.2,0.993-3.112,0.189l-335.631-297.297
					l215.358,274.442c0.318,0.405,0.47,0.885,0.47,1.361c0,0.652-0.29,1.301-0.844,1.735c-0.957,0.749-2.343,0.588-3.095-0.375
					l-153.052-195.043c-0.125,0.168-0.276,0.321-0.452,0.454c-0.977,0.73-2.357,0.528-3.086-0.443l-10.405-13.896
					c-0.92,0.37-2.009,0.088-2.617-0.749l-4.984-6.881l49.35,75.237c0.245,0.375,0.363,0.795,0.362,1.212
					c-0.001,0.717-0.351,1.419-0.996,1.841c-1.017,0.67-2.385,0.383-3.052-0.633l-95.69-145.886l54.346,307.297
					c0.023,0.131,0.034,0.261,0.033,0.39c-0.001,1.049-0.752,1.977-1.82,2.164c-1.207,0.217-2.344-0.588-2.556-1.787l-55.34-312.914
					l-15.004,19.624c-0.739,0.969-2.123,1.152-3.091,0.411c-0.566-0.433-0.865-1.087-0.865-1.748
					c-0.001-0.469,0.147-0.941,0.453-1.341l8.386-10.968l-85.872,64.297c-0.979,0.732-2.359,0.53-3.087-0.444
					c-0.297-0.396-0.44-0.859-0.44-1.32c0-0.67,0.305-1.333,0.884-1.768l13.895-10.404c-0.374-0.919-0.089-2.009,0.75-2.616
					l6.871-4.976l-75.23,49.344c-1.017,0.672-2.385,0.381-3.052-0.633c-0.245-0.375-0.363-0.795-0.362-1.212
					c0.001-0.717,0.351-1.419,0.996-1.841l145.776-95.621l-528.752,96.112c-1.199,0.237-2.346-0.575-2.563-1.774
					c-0.024-0.131-0.036-0.26-0.036-0.39c-0.003-1.049,0.744-1.979,1.811-2.172l533.473-96.971l-924.077-526.894
					c-0.715-0.409-1.115-1.156-1.113-1.923c0-0.37,0.094-0.743,0.29-1.085c0.603-1.057,1.948-1.427,3.007-0.825l874.478,498.614
					L556.464,1011.51c-0.637-0.424-0.982-1.124-0.982-1.837c0-0.42,0.12-0.844,0.37-1.221c0.676-1.014,2.043-1.288,3.057-0.611
					l742.051,494.698L410.835,826.225c-0.572-0.433-0.872-1.094-0.871-1.759c0.001-0.465,0.148-0.932,0.449-1.328
					c0.737-0.971,2.12-1.16,3.09-0.422l904.086,686.92L470.227,748.942c-0.486-0.435-0.732-1.038-0.732-1.641
					c0-0.525,0.186-1.051,0.564-1.473c0.811-0.904,2.206-0.986,3.113-0.168l852.213,765.046L525.201,645.172
					c-0.391-0.422-0.585-0.956-0.586-1.49c-0.001-0.596,0.237-1.189,0.708-1.626c0.896-0.827,2.289-0.769,3.116,0.123
					l803.425,869.041l-48.317-64.53c-0.297-0.396-0.44-0.859-0.44-1.32c0-0.67,0.305-1.333,0.884-1.768
					c0.368-0.276,0.796-0.418,1.223-0.437L630.85,517.068c-0.271-0.385-0.403-0.827-0.404-1.264
					c-0.002-0.693,0.323-1.378,0.932-1.809c0.995-0.704,2.373-0.465,3.074,0.528l652.962,924.114l-31.682-48.302
					c-0.245-0.375-0.363-0.795-0.362-1.212c0.001-0.717,0.351-1.419,0.996-1.841c1.018-0.672,2.386-0.381,3.052,0.633l36.273,55.301
					L815.969,649.226c-0.216-0.36-0.319-0.754-0.318-1.145c0.001-0.743,0.381-1.471,1.065-1.882
					c1.039-0.637,2.396-0.297,3.027,0.745l533.304,882.675L1038.743,347.88c-0.051-0.187-0.074-0.377-0.075-0.564
					c-0.001-0.975,0.651-1.871,1.64-2.134c1.179-0.308,2.384,0.388,2.697,1.565l315.495,1186.212l167.127-1167.404
					c0.172-1.206,1.29-2.037,2.494-1.871c1.097,0.157,1.889,1.098,1.893,2.172c0.001,0.108-0.006,0.215-0.023,0.323
					l-162.037,1131.852l272.662-1131.393c0.285-1.182,1.476-1.908,2.66-1.628c1.008,0.243,1.686,1.143,1.688,2.136
					c0.001,0.174-0.019,0.349-0.061,0.525l-280.306,1163.109L1994.73,494.985c0.633-1.042,1.989-1.369,3.03-0.739
					c0.684,0.416,1.06,1.143,1.059,1.888c0,0.39-0.103,0.784-0.321,1.141l-621.072,1020.9c0.392,0.041,0.778,0.185,1.114,0.444
					c0.03,0.021,0.06,0.047,0.089,0.071l667.866-753.008c0.806-0.913,2.2-0.997,3.112-0.187c0.491,0.435,0.742,1.042,0.742,1.649
					c0,0.521-0.183,1.042-0.555,1.462l-671.139,756.701l761.107-617.707c0.947-0.764,2.333-0.624,3.102,0.323
					c0.333,0.409,0.494,0.902,0.493,1.393c-0.001,0.639-0.28,1.272-0.815,1.707l-747.086,606.328l682.62-450.937
					c1.02-0.672,2.385-0.392,3.055,0.624c0.246,0.373,0.365,0.792,0.365,1.208c0.001,0.717-0.346,1.421-0.989,1.845l-695.96,459.752
					l759.687-350.196c1.103-0.508,2.414-0.024,2.925,1.079c0.138,0.299,0.202,0.612,0.203,0.919c0,0.835-0.475,1.634-1.283,2.007
					l-769.043,354.509l774.577-154.591c1.188-0.252,2.355,0.536,2.594,1.731c0.029,0.144,0.043,0.289,0.043,0.431
					c0.002,1.029-0.723,1.953-1.773,2.162l-785.365,156.745l575.559,217.956c0.881,0.334,1.423,1.171,1.425,2.061
					c0,0.261-0.046,0.525-0.144,0.784c-0.431,1.137-1.707,1.712-2.842,1.281l-555.569-210.388l575.493,324.531
					c0.717,0.405,1.121,1.15,1.122,1.918c0.001,0.368-0.091,0.741-0.284,1.085C1961.468,1884.586,1960.72,1884.988,1959.95,1884.988
					z"/>
				<path style="fill:#FFFFFF;" d="M1353.628,1866.247c-0.013,0-0.026,0-0.039,0c-1.204-0.021-2.165-1.001-2.167-2.201
					c0-0.013,0-0.028,0-0.043l4.112-238.398c-0.947-0.252-1.635-1.115-1.635-2.13c0-0.028,0-0.056,0.001-0.084l2.497-65.199
					l-36.478,101.803c-0.411,1.148-1.67,1.742-2.82,1.333c-0.9-0.323-1.461-1.169-1.462-2.073c0-0.248,0.042-0.5,0.13-0.745
					l38.899-108.562l-5.501,3.983c-0.988,0.719-2.364,0.493-3.079-0.491c-0.682-0.945-0.51-2.248,0.369-2.984l-574.115,188.049
					c-1.157,0.381-2.401-0.252-2.781-1.408c-0.074-0.226-0.11-0.456-0.111-0.682c-0.002-0.928,0.588-1.794,1.52-2.099
					l573.224-187.758l-634.887,15.83c-1.214-0.043-2.228-0.932-2.259-2.149c-0.001-0.019-0.001-0.039-0.001-0.058
					c0-1.191,0.952-2.172,2.15-2.203l580.146-14.463l-9.775-0.375c-1.188-0.045-2.121-1.023-2.121-2.203
					c0-0.028,0-0.056,0.001-0.084c0.048-1.217,1.094-2.203,2.288-2.119l60.736,2.323l-948.738-264.682
					c-0.976-0.271-1.615-1.158-1.614-2.125c0.001-0.196,0.027-0.394,0.082-0.59c0.328-1.173,1.546-1.86,2.716-1.531l907.855,253.274
					l-57.641-20.653c-0.9-0.323-1.461-1.169-1.462-2.073c0-0.248,0.042-0.5,0.13-0.745c0.41-1.15,1.664-1.748,2.819-1.333
					l31.036,11.121L336.36,1121.953c-0.848-0.353-1.36-1.171-1.361-2.037c0-0.282,0.055-0.568,0.169-0.844
					c0.466-1.124,1.757-1.656,2.882-1.193l1016.418,421.773L785.058,421.761c-0.164-0.323-0.241-0.665-0.24-1.003
					c0.001-0.803,0.441-1.574,1.204-1.962c1.085-0.555,2.413-0.123,2.966,0.962l554.287,1088.201L994.383,578.306
					c-0.096-0.254-0.141-0.515-0.142-0.771c-0.001-0.894,0.545-1.735,1.431-2.069c1.143-0.422,2.413,0.151,2.839,1.29
					l356.65,950.325L1243.718,463.291c-0.008-0.075-0.012-0.151-0.012-0.226c-0.003-1.117,0.84-2.078,1.975-2.196
					c1.197-0.129,2.295,0.751,2.422,1.961l110.021,1050.228l1.864-48.659c0.012-0.321,0.093-0.625,0.226-0.894l45.683-1122.959
					c0.05-1.217,1.068-2.201,2.292-2.112c1.188,0.047,2.119,1.027,2.115,2.207c0,0.028-0.001,0.056-0.002,0.086l-48.391,1189.539
					l401.95-1076.977c0.427-1.141,1.7-1.718,2.837-1.294c0.887,0.329,1.435,1.171,1.434,2.065c0,0.256-0.044,0.517-0.139,0.771
					l-392.386,1051.348l494.18-986.96c0.545-1.092,1.87-1.527,2.958-0.986c0.77,0.385,1.215,1.16,1.218,1.968
					c0.001,0.334-0.073,0.672-0.234,0.99l-500.197,998.981l646.363-899.831c0.711-0.99,2.084-1.221,3.077-0.506
					c0.599,0.431,0.917,1.105,0.918,1.791c0.001,0.446-0.134,0.896-0.415,1.286l-654.595,911.294l72.967-52.847
					c0.987-0.719,2.365-0.493,3.079,0.491c0.281,0.39,0.418,0.84,0.419,1.285c0.002,0.687-0.314,1.361-0.912,1.794l-72.545,52.543
					l735.659-241.662c1.151-0.381,2.401,0.25,2.783,1.406c0.075,0.23,0.111,0.465,0.111,0.696c-0.003,0.924-0.591,1.785-1.518,2.089
					l-191.686,62.969c-0.265,0.418-0.671,0.751-1.178,0.917l-539.616,176.747l728.53-47.849c1.183-0.054,2.263,0.84,2.345,2.056
					c0.002,0.047,0.004,0.095,0.004,0.142c0.002,1.154-0.893,2.125-2.061,2.203l-703.646,46.215l37.109,1.421
					c1.188,0.045,2.121,1.023,2.121,2.203c0,0.028,0,0.056-0.001,0.084c-0.047,1.217-1.054,2.22-2.288,2.119h-0.023l646.304,60.742
					c1.141,0.108,1.997,1.068,1.998,2.192c0,0.069-0.003,0.14-0.01,0.211c-0.115,1.212-1.194,2.121-2.402,1.987l-691.456-64.986
					l567.468,128.416c1.025,0.233,1.72,1.143,1.718,2.153c0,0.159-0.017,0.323-0.055,0.484c-0.269,1.188-1.451,1.927-2.637,1.664
					l-565.453-127.961l81.151,29.078c0.9,0.323,1.461,1.169,1.462,2.073c0,0.248-0.042,0.5-0.13,0.745
					c-0.411,1.148-1.673,1.744-2.819,1.333l-112.377-40.266l-5.467,316.988C1355.81,1865.285,1354.827,1866.247,1353.628,1866.247z"
					/>
			</g>
			<path style="fill:#FFFFFF;" d="M1459.31,477.797c0.106-1.306,0.175-2.623,0.175-3.957c0-26.605-21.568-48.173-48.172-48.173
				c-6.754,0-13.179,1.395-19.013,3.904c-3.936-14.605-17.268-25.355-33.117-25.355c-6.141,0-11.9,1.621-16.886,4.448
				c-12.047-25.421-37.931-43.007-67.932-43.007c-32.889,0-60.824,21.14-71.007,50.566c-2.553-0.32-5.149-0.504-7.789-0.504
				c-34.291,0-62.09,27.791-62.105,62.078H1459.31z"/>
			<path style="fill:#FFFFFF;" d="M1208.992,590.059c0.148-1.823,0.244-3.662,0.244-5.523c0-37.141-30.108-67.249-67.248-67.249
				c-9.428,0-18.397,1.948-26.541,5.45c-5.495-20.388-24.106-35.396-46.231-35.396c-8.573,0-16.612,2.263-23.572,6.209
				c-16.817-35.487-52.951-60.037-94.831-60.037c-45.913,0-84.909,29.511-99.125,70.589c-3.565-0.447-7.188-0.703-10.874-0.703
				c-47.869,0-86.677,38.796-86.697,86.66H1208.992z"/>
			<g>
				<rect x="1007.694" y="831.568" style="fill:#8B865C;" width="744.621" height="1054.374"/>
				<path style="fill:#8B865C;" d="M1705.141,1885.942H938.71c-35.147,0-63.638-28.492-63.638-63.638V703.889
					c0-31.979,25.924-57.903,57.903-57.903h772.166V1885.942z"/>
				<g>
					<path style="fill:#F7F1EB;" d="M1644.823,742.534c0-26.722,11.829-50.626,30.465-66.944H1009.79
						c-43.072,0-77.989,34.915-77.989,77.989l0,0c0,43.07,34.917,77.989,77.989,77.989h724.069
						C1684.686,831.568,1644.823,791.706,1644.823,742.534z"/>
				</g>
				<path style="fill:#E6D0BE;" d="M1649.784,715.56H1092.53c-1.218,0-2.205-0.986-2.205-2.205s0.987-2.205,2.205-2.205h557.254
					c1.218,0,2.205,0.986,2.205,2.205S1651.002,715.56,1649.784,715.56z"/>
				<path style="fill:#E6D0BE;" d="M1649.784,758.961H1005.73c-1.218,0-2.205-0.986-2.205-2.205s0.987-2.205,2.205-2.205h644.055
					c1.218,0,2.205,0.986,2.205,2.205S1651.002,758.961,1649.784,758.961z"/>
				<path style="fill:#E6D0BE;" d="M1658.464,793.68H1101.21c-1.218,0-2.205-0.986-2.205-2.205c0-1.219,0.987-2.205,2.205-2.205
					h557.254c1.218,0,2.205,0.986,2.205,2.205C1660.669,792.694,1659.681,793.68,1658.464,793.68z"/>
				<path style="fill:#EFBC73;" d="M1066.972,1575.099c-1.218,0-2.205-0.986-2.205-2.205V952.759c0-1.219,0.987-2.205,2.205-2.205
					h317.372c1.218,0,2.205,0.986,2.205,2.205s-0.987,2.205-2.205,2.205h-315.167v617.931
					C1069.176,1574.113,1068.189,1575.099,1066.972,1575.099z"/>
				<path style="fill:#EFBC73;" d="M1614.917,1766.955h-382.918c-1.218,0-2.205-0.986-2.205-2.205c0-1.219,0.987-2.205,2.205-2.205
					h380.714V1272.41c0-1.219,0.987-2.205,2.205-2.205c1.218,0,2.205,0.986,2.205,2.205v492.34
					C1617.122,1765.969,1616.135,1766.955,1614.917,1766.955z"/>
				<path style="fill:#EFBC73;" d="M1373.127,1518.5h-50.513c-1.218,0-2.205-0.986-2.205-2.205v-233.371h-108.657
					c-1.218,0-2.205-0.986-2.205-2.205v-50.513c0-1.219,0.987-2.205,2.205-2.205h108.657v-105.289c0-1.219,0.987-2.205,2.205-2.205
					h50.513c1.218,0,2.205,0.986,2.205,2.205v105.289h104.617c1.218,0,2.205,0.986,2.205,2.205v50.513
					c0,1.219-0.987,2.205-2.205,2.205h-104.617v233.371C1375.332,1517.513,1374.345,1518.5,1373.127,1518.5z M1324.819,1514.09
					h46.103v-233.371c0-1.219,0.987-2.205,2.205-2.205h104.617v-46.103h-104.617c-1.218,0-2.205-0.986-2.205-2.205v-105.289h-46.103
					v105.289c0,1.219-0.987,2.205-2.205,2.205h-108.657v46.103h108.657c1.218,0,2.205,0.986,2.205,2.205V1514.09z"/>
				<path style="fill:#EFBC73;" d="M1757.694,931.304h-37.993c-37.067,0-67.115-30.049-67.115-67.115v-37.993h105.108V931.304z"/>
				<path style="fill:#EFBC73;" d="M1652.587,1890.445v-37.993c0-37.067,30.049-67.115,67.115-67.115h37.993v105.108H1652.587z"/>
				<path style="fill:#776E42;" d="M948.308,1848.777c-1.218,0-2.205-0.986-2.205-2.205v-964.72c0-1.219,0.987-2.205,2.205-2.205
					c1.218,0,2.205,0.986,2.205,2.205v964.72C950.513,1847.791,949.526,1848.777,948.308,1848.777z"/>
				<path style="fill:#776E42;" d="M909.248,1796.697c-1.218,0-2.205-0.986-2.205-2.205v-964.72c0-1.219,0.987-2.205,2.205-2.205
					s2.205,0.986,2.205,2.205v964.72C911.453,1795.71,910.466,1796.697,909.248,1796.697z"/>
			</g>
		</g>
		<g>
			<g>
				<path style="fill:#363E44;" d="M951.115,1491.334c-7.313-43.388-43.035-74.849-67.441-96.344
					c-14.125-12.44-20.342-16.813-32.558-30.017c-20.381-22.031-23.025-32.892-42.376-37.423
					c-38.502-9.014-77.007,22.517-83.498,27.833c-38.075,31.179-32.154,63.318-57.806,71.723
					c-28.972,9.493-49.538-27.238-98.485-48.172c-52.513-22.459-134.205-25.246-184.124,18.198
					c-34.588,30.102-49.863,78.876-48.481,126.844c13.498-17.594,38.01-41.647,73.293-45.832c0,0-55.406,27.951-67.693,87.973
					c7.426,30.666,21.979,58.365,42.88,77.227c8.611,7.771,30.837,25.358,138.093,31.045c58.352,3.094,71.762-2.065,311.513-43.891
					c21.747-3.793,51.74-8.999,77.533-32.765C938.327,1573.444,957.958,1531.929,951.115,1491.334z"/>
				<path style="fill:#FFFFFF;" d="M710.378,1547.888c-6.948,0-13.788-1.165-19.817-3.167
					c-18.115-6.024-32.728-18.321-47.336-31.466c-5.047-4.541-10.06-9.127-15.073-13.716c-18.33-16.779-37.285-34.127-57.759-48.777
					c-29.582-21.167-58.713-33.643-86.581-37.081c-33.572-4.141-66.297,5.499-87.547,25.792c-0.88,0.838-2.277,0.807-3.117-0.073
					c-0.841-0.881-0.808-2.276,0.072-3.118c22.194-21.193,56.262-31.276,91.132-26.977c28.607,3.529,58.419,16.269,88.607,37.87
					c20.69,14.805,39.744,32.245,58.17,49.111c5.004,4.58,10.007,9.159,15.045,13.692c14.247,12.82,28.469,24.802,45.777,30.557
					c15.707,5.219,37.297,4.371,50.109-9.31c0.832-0.889,2.229-0.935,3.117-0.101c0.889,0.831,0.934,2.226,0.102,3.116
					C736.138,1543.999,723.075,1547.888,710.378,1547.888z"/>
				<path style="fill:#FFFFFF;" d="M683.179,1580.181c-8.537,0-17.069-1.182-25.278-3.598
					c-20.777-6.111-38.437-19.346-55.516-32.149c-3.11-2.33-6.214-4.657-9.33-6.937c-19.086-13.963-42.019-28.09-67.198-27.257
					c-1.261,0.108-2.238-0.913-2.279-2.127c-0.041-1.217,0.912-2.237,2.128-2.278c26.699-0.922,51.41,14.538,69.951,28.105
					c3.129,2.289,6.247,4.625,9.371,6.968c16.766,12.566,34.102,25.56,54.115,31.447c23.691,6.965,50.24,3.163,71.019-10.18
					c1.022-0.659,2.387-0.36,3.046,0.665c0.658,1.025,0.361,2.388-0.664,3.047C717.906,1575.284,700.538,1580.181,683.179,1580.181z
					"/>
			</g>
			<g>
				<g>
					<g>
						<path style="fill:#E2A18D;" d="M1108.983,1705.281c146.428,119.791,210.349,203.336,160.48,255.056
							c-28.929,30.002-136.622-3.496-257.165-91.894C1042.602,1816.906,1070.936,1766.82,1108.983,1705.281z"/>
						<path style="fill:#E2A18D;" d="M1116.047,1866.253c-0.003-0.003-0.004-0.009,0-0.013
							c105.829-134.596,178.333-232.119,201.899-261.346c2.468-3.061,6.799-8.483,14.128-13.74
							c27.156-19.483,51.946-5.496,89.847-12.953c43.005-8.461,62.431-37.574,71.16-30.567c6.072,4.874,1.836,17.918-15.79,39.214
							c0,0,0.001,0.005,0.003,0.003c15.251-14.64,36.801-33.591,44.867-25.14c8.792,10.257-13.913,35.496-28.394,50.093
							c17.528-17.668,32.135-21.82,35.458-15.987c5.23,9.182-5.171,26.048-29.243,48.5c-0.001,0.001,0,0.003,0,0.003
							c20.953-10.86,27.654-10.372,29.335-4.5c3.068,10.722-17.07,28.808-37.323,42.068c-22.8,14.928-45.662,18.596-60.132,20.565
							c-0.004,0.001-0.007,0.003-0.01,0.006c-64.347,101.953-105.592,167.6-155.884,250.999
							c-10.29,17.062-32.991,21.647-49.107,9.932C1183.29,1931.715,1159.325,1913.103,1116.047,1866.253z"/>
						<path style="fill:#363E44;" d="M1117.244,1866.919c-0.477,0-0.957-0.153-1.362-0.471c-0.957-0.752-1.123-2.138-0.37-3.096
							c23.305-29.647,46.42-59.306,70.667-90.669c0.745-0.965,2.132-1.137,3.093-0.396c0.962,0.745,1.14,2.129,0.395,3.092
							c-24.254,31.373-47.377,61.042-70.689,90.699C1118.544,1866.631,1117.897,1866.919,1117.244,1866.919z"/>
						<path style="fill:#E2A18D;" d="M1388.752,1593.149c24.571-35.736,25.861-53.833,20.073-57.546
							c-9.733-6.245-43.199,15.678-85.689,63.382C1341.563,1598.998,1370.326,1593.136,1388.752,1593.149z"/>
						<path style="fill:#363E44;" d="M1373.587,1665.988c-0.43,0-0.863-0.125-1.245-0.387c-1.005-0.687-1.261-2.061-0.572-3.064
							c4.527-6.602,12.687-15.597,25.851-20.961c18.617-7.59,35.651-2.92,42.11-0.56c1.143,0.418,1.732,1.684,1.314,2.827
							c-0.419,1.146-1.685,1.731-2.828,1.316c-5.976-2.183-21.737-6.507-38.932,0.5c-12.151,4.952-19.693,13.268-23.878,19.372
							C1374.98,1665.654,1374.29,1665.988,1373.587,1665.988z"/>
						<path style="fill:#363E44;" d="M1352.737,1585.507c-1.02,0-1.935-0.71-2.155-1.748c-0.252-1.191,0.509-2.362,1.701-2.614
							c9.53-2.017,19.263-1.72,29.565-1.406c4.768,0.144,9.701,0.299,14.857,0.23c1.284-0.015,2.218,0.96,2.233,2.177
							c0.015,1.217-0.959,2.218-2.177,2.233c-5.245,0.062-10.231-0.084-15.047-0.233c-10.027-0.304-19.504-0.594-28.517,1.313
							C1353.041,1585.492,1352.889,1585.507,1352.737,1585.507z"/>
						<path style="fill:#363E44;" d="M1441.603,1605.906c-0.997,0-1.901-0.68-2.142-1.692c-0.283-1.184,0.448-2.375,1.633-2.657
							c4.998-1.193,9.91-2.857,14.595-4.946c6.795-3.032,13.177-6.972,18.967-11.715c0.943-0.771,2.331-0.635,3.103,0.308
							c0.772,0.943,0.634,2.332-0.308,3.103c-6.094,4.993-12.811,9.142-19.966,12.331c-4.934,2.201-10.105,3.953-15.368,5.208
							C1441.946,1605.887,1441.774,1605.906,1441.603,1605.906z"/>
						<path style="fill:#363E44;" d="M1460.267,1628.491c-0.997,0-1.901-0.68-2.142-1.692c-0.283-1.184,0.448-2.375,1.633-2.657
							c4.999-1.193,9.91-2.857,14.595-4.946c6.791-3.027,13.172-6.968,18.967-11.715c0.943-0.769,2.331-0.633,3.103,0.308
							c0.772,0.943,0.634,2.332-0.308,3.103c-6.099,4.998-12.817,9.144-19.966,12.331c-4.934,2.2-10.105,3.953-15.368,5.208
							C1460.609,1628.471,1460.437,1628.491,1460.267,1628.491z"/>
						<path style="fill:#363E44;" d="M1464.912,1663.83c-0.997,0-1.901-0.68-2.142-1.692c-0.283-1.184,0.448-2.375,1.633-2.657
							c4.999-1.193,9.909-2.857,14.594-4.946c6.795-3.032,13.177-6.972,18.967-11.715c0.943-0.771,2.331-0.635,3.103,0.308
							c0.772,0.943,0.634,2.332-0.308,3.103c-6.094,4.993-12.811,9.142-19.966,12.331c-4.933,2.2-10.104,3.953-15.366,5.208
							C1465.255,1663.811,1465.082,1663.83,1464.912,1663.83z"/>
					</g>
					<path style="fill:#D87355;" d="M496.611,1703.388c0,0,123.085-99.077,329.516-99.077c201.347,0,312.329,99.077,312.329,99.077
						l-104.083,175.035l-5.314,145.57H594.558v-148.796L496.611,1703.388z"/>
					<g>
						<path style="fill:#E2A18D;" d="M435.529,1999.542L435.529,1999.542c27.479,16.238,62.829,8.548,81.079-17.637l79.316-113.801
							l-91.968-151.832L376.47,1885.357C338.692,1951.13,398.693,1987.489,435.529,1999.542z"/>
						<path style="fill:#E2A18D;" d="M462.027,2008.032c0,0,205.559,34.745,208.892,34.745c3.333,0,107.287,0,107.287,0
							l-226.177-157.419L462.027,2008.032z"/>
					</g>
					<g>
						<polygon style="fill:#F2E6DC;" points="674.943,1871.977 693.684,1859.299 833.139,1918.278 814.949,1924.892 						"/>
						<polygon style="fill:#F2E6DC;" points="841.958,1923.239 992.437,1878.591 963.223,1866.464 827.627,1918.829 						"/>
						<polygon style="fill:#8B865C;" points="671.452,1869.22 823.585,1918.462 822.482,2159.154 666.859,2072.064 						"/>
						<rect x="821.747" y="1917.727" style="fill:#9E9569;" width="24.988" height="241.06"/>
						<polygon style="fill:#8B865C;" points="844.714,1917.727 997.949,1871.977 997.398,2103.483 846.735,2158.787 						"/>
					</g>
					<g>
						<g>
							<path style="fill:#E2A18D;" d="M630.663,1941.245c0,0,33.253,9.71,40.422,11.024c21.787,3.993,125.356,19.77,122.574,35.146
								c-1.777,9.822-54.721,0.568-64.067-0.319c10.624,3.857,67.853,14.965,67.136,24.049c-0.778,9.858-74.914,2.147-75.503,2.25
								c7.847,1.814,65.675,13.948,63.617,22.326c-2.389,9.723-63.557,2.404-73.441,0.659c0.544,1.316,43.255,7.743,42.208,17.517
								c-0.932,8.708-36.957,4.94-48.716,2.735c-17.951,0.137-13.229,0.735-56.59-8.084c-23.791-4.839-67.615-20.578-67.615-20.578
								L630.663,1941.245z"/>
						</g>
						<path style="fill:#363E44;" d="M731.719,1988.281c-0.132,0-0.268-0.011-0.404-0.037l-29.765-5.512
							c-1.197-0.222-1.989-1.372-1.767-2.569c0.222-1.199,1.365-2,2.57-1.768l29.765,5.512c1.197,0.222,1.989,1.372,1.767,2.569
							C733.688,1987.54,732.762,1988.281,731.719,1988.281z"/>
						<path style="fill:#363E44;" d="M723.451,2014.188c-0.129,0-0.26-0.011-0.392-0.035l-21.497-3.858
							c-1.198-0.215-1.996-1.361-1.781-2.56c0.214-1.197,1.356-1.998,2.56-1.781l21.497,3.858c1.198,0.215,1.996,1.361,1.781,2.56
							C725.428,2013.438,724.499,2014.188,723.451,2014.188z"/>
						<path style="fill:#363E44;" d="M711.402,2038.583c-0.149,0-0.299-0.015-0.45-0.045l-16.614-3.449
							c-1.193-0.248-1.958-1.415-1.711-2.607c0.248-1.193,1.417-1.955,2.606-1.712l16.614,3.449
							c1.193,0.248,1.958,1.415,1.711,2.607C713.342,2037.868,712.425,2038.583,711.402,2038.583z"/>
						<path style="fill:#E2A18D;" d="M633.603,1942.714l36.747-13.229l-0.919,26.09
							C641.649,1958.546,632.577,1952.572,633.603,1942.714z"/>
					</g>
					<path style="fill:#363E44;" d="M570.763,1898.986c-0.424,0-0.853-0.123-1.231-0.377
						c-39.311-26.523-75.149-37.887-106.519-33.817c-1.203,0.149-2.315-0.693-2.471-1.901c-0.157-1.208,0.694-2.313,1.902-2.47
						c32.468-4.22,69.327,7.394,109.553,34.532c1.01,0.68,1.276,2.052,0.595,3.062
						C572.167,1898.646,571.472,1898.986,570.763,1898.986z"/>
				</g>
			</g>
			<g>
				
					<ellipse transform="matrix(0.7071 -0.7071 0.7071 0.7071 -763.6445 978.6039)" style="fill:#363E44;" cx="799.457" cy="1411.102" rx="85.231" ry="85.231"/>
				<rect x="757.966" y="1481.196" style="fill:#E2A18D;" width="84.812" height="146.017"/>
				<path style="fill:#E2A18D;" d="M869.828,1442.089c0,45.401-31.445,93.292-70.234,93.292c-38.789,0-70.234-47.891-70.234-93.292
					c0-45.401,31.445-82.206,70.234-82.206C838.383,1359.883,869.828,1396.687,869.828,1442.089z"/>
				<path style="fill:#363E44;" d="M799.594,1537.585c-14.369,0-28.478-6.281-40.8-18.164c-0.876-0.844-0.901-2.242-0.056-3.118
					c0.846-0.874,2.241-0.9,3.118-0.056c11.484,11.074,24.533,16.928,37.738,16.928c14.372,0,28.382-6.828,40.515-19.744
					c0.835-0.889,2.232-0.93,3.117-0.097c0.888,0.833,0.931,2.229,0.098,3.116C830.336,1530.277,815.214,1537.585,799.594,1537.585z
					"/>
				<path style="fill:#E2A18D;" d="M742.027,1440.477c6.343,13.902,3.9,28.633-5.457,32.902
					c-9.357,4.269-22.085-3.539-28.428-17.441c-6.343-13.902-3.9-28.633,5.457-32.902
					C722.957,1418.766,735.684,1426.575,742.027,1440.477z"/>
				<path style="fill:#363E44;" d="M720.443,1461.245c-0.506,0-1.014-0.172-1.43-0.527c-2.354-2.009-4.343-4.7-5.75-7.784
					c-4.004-8.774-2.225-17.893,4.049-20.756c2.381-1.087,5.108-1.113,7.887-0.071c1.14,0.428,1.718,1.699,1.291,2.838
					c-0.427,1.143-1.698,1.716-2.839,1.292c-1.154-0.435-2.871-0.794-4.509-0.045c-3.891,1.774-4.745,8.604-1.868,14.913
					c1.142,2.502,2.732,4.666,4.6,6.259c0.927,0.79,1.037,2.181,0.247,3.109C721.686,1460.983,721.067,1461.245,720.443,1461.245z"
					/>
				<path style="fill:#363E44;" d="M734.09,1474.013c-0.925,0-1.786-0.586-2.093-1.511c-3.214-9.698-4.842-19.93-4.842-30.413
					c0-5.206,0.409-10.417,1.218-15.488c0.192-1.204,1.331-2.026,2.523-1.83c1.203,0.192,2.022,1.322,1.831,2.524
					c-0.772,4.842-1.163,9.818-1.163,14.794c0,10.012,1.554,19.777,4.619,29.027c0.383,1.156-0.243,2.403-1.4,2.786
					C734.553,1473.977,734.319,1474.013,734.09,1474.013z"/>
				<path style="fill:#E2A18D;" d="M856.407,1440.477c-6.343,13.902-3.9,28.633,5.457,32.902
					c9.357,4.269,22.085-3.539,28.428-17.441c6.343-13.902,3.9-28.633-5.457-32.902
					C875.478,1418.766,862.75,1426.575,856.407,1440.477z"/>
				<path style="fill:#363E44;" d="M877.991,1461.245c-0.623,0-1.242-0.263-1.678-0.773c-0.79-0.928-0.68-2.319,0.247-3.109
					c1.868-1.593,3.458-3.757,4.6-6.259c2.878-6.309,2.022-13.139-1.868-14.913c-1.635-0.747-3.354-0.39-4.509,0.045
					c-1.139,0.424-2.41-0.149-2.839-1.292c-0.427-1.139,0.151-2.409,1.291-2.838c2.776-1.04,5.505-1.016,7.887,0.071
					c6.273,2.864,8.052,11.98,4.049,20.756c-1.407,3.083-3.395,5.775-5.75,7.784
					C879.005,1461.073,878.497,1461.245,877.991,1461.245z"/>
				<path style="fill:#363E44;" d="M864.343,1474.013c-0.229,0-0.463-0.037-0.693-0.112c-1.156-0.383-1.783-1.63-1.399-2.786
					c3.065-9.246,4.618-19.012,4.618-29.027c0-4.974-0.391-9.95-1.162-14.794c-0.19-1.204,0.629-2.332,1.831-2.524
					c1.209-0.2,2.333,0.629,2.524,1.83c0.806,5.073,1.216,10.283,1.216,15.488c0,10.488-1.629,20.72-4.842,30.413
					C866.129,1473.428,865.268,1474.013,864.343,1474.013z"/>
				<path style="fill:#363E44;" d="M800.997,1483.326c-0.729,0-1.443-0.362-1.862-1.023c-0.654-1.027-0.35-2.39,0.677-3.042
					c2.049-1.303,3.277-2.758,3.648-4.326c0.36-1.509-0.15-2.771-1.157-5.058c-0.755-1.712-1.693-3.841-2.232-6.601
					c-0.686-3.516-0.559-7.235,0.378-11.056c0.29-1.184,1.486-1.906,2.667-1.617c1.182,0.291,1.906,1.486,1.616,2.668
					c-0.784,3.195-0.896,6.276-0.333,9.162c0.444,2.276,1.204,4.001,1.939,5.667c1.096,2.487,2.132,4.836,1.412,7.857
					c-0.646,2.722-2.521,5.088-5.572,7.026C801.811,1483.214,801.402,1483.326,800.997,1483.326z"/>
				<path style="fill:#363E44;" d="M791.524,1498.727c-3.165,0-6.201-1.404-8.01-4.003c-2.103-3.016-2.176-7.189-0.186-10.628
					c0.61-1.053,1.963-1.417,3.012-0.803c1.055,0.609,1.415,1.957,0.805,3.012c-1.137,1.964-1.142,4.281-0.014,5.9
					c1.529,2.192,4.913,2.767,7.552,1.277c1.06-0.599,2.405-0.224,3.004,0.838c0.597,1.059,0.224,2.405-0.838,3.004
					C795.168,1498.273,793.324,1498.727,791.524,1498.727z"/>
				<path style="fill:#E2A18D;" d="M918.024,1610.522c0,0-36.022,58.867-108.036,60.265c-75.699,1.47-124.091-51.123-124.091-51.123
					s50.587-18.134,112.989-18.134C861.289,1601.529,918.024,1610.522,918.024,1610.522z"/>
				<g>
					<g>
						<path style="fill:#FFFFFF;" d="M850.109,1430.27l0,0.004l-0.182-0.019c-0.096,0.379-0.35,0.862-0.75,0.849
							c-0.479,0.568-0.698,1.487-1.021,2.092c-0.58,1.09-2.233,0.121-1.654-0.967c0.39-0.733-2.209,0.67-3.349,1.108
							c-3.634,1.397-7.318,2.63-11.047,3.749c-1.739,0.522-3.48,1.058-5.237,1.519c-1.408,0.37-6.057,1.835-6.426,1.617
							c-4.74,4.34-7.357,8.442-7.357,8.442s6.799,3.018,15.585,3.485c0.025-0.118,0.052-0.234,0.073-0.354
							c0.204-1.179,20.467-5.959,21.014-5.06c8.576-5.463,13.513-13.172,13.513-13.172S857.691,1431.084,850.109,1430.27z"/>
						<path style="fill:#363E44;" d="M835.268,1431.441c-6.085,1.831-11.101,5.374-14.815,8.773
							c0.461,3.797,2.268,7.442,5.395,10.133c0.805,0.693,1.662,1.286,2.553,1.791c3.961,0.234,8.337-0.042,12.688-1.351
							c3.146-0.946,5.989-2.361,8.532-3.967c3.241-5.082,3.277-11.497,0.305-16.565
							C845.476,1429.795,840.356,1429.91,835.268,1431.441z"/>
					</g>
					<g>
						<path style="fill:#FFFFFF;" d="M750.783,1431.642l0,0.004l0.181-0.019c0.096,0.379,0.35,0.862,0.751,0.85
							c0.478,0.568,0.698,1.487,1.02,2.092c0.58,1.09,2.233,0.121,1.654-0.967c-0.39-0.732,2.209,0.67,3.349,1.108
							c3.634,1.397,7.318,2.63,11.047,3.75c1.739,0.522,3.48,1.058,5.237,1.519c1.408,0.37,6.058,1.835,6.426,1.617
							c4.74,4.34,7.357,8.441,7.357,8.441s-6.799,3.018-15.585,3.485c-0.025-0.118-0.053-0.234-0.073-0.353
							c-0.203-1.179-20.467-5.96-21.014-5.06c-8.575-5.463-13.513-13.172-13.513-13.172S743.201,1432.456,750.783,1431.642z"/>
						<path style="fill:#363E44;" d="M765.623,1432.813c6.085,1.831,11.1,5.374,14.815,8.773c-0.461,3.797-2.268,7.442-5.395,10.134
							c-0.805,0.693-1.662,1.286-2.553,1.791c-3.96,0.235-8.337-0.042-12.687-1.351c-3.146-0.946-5.989-2.362-8.532-3.967
							c-3.241-5.082-3.277-11.497-0.306-16.565C755.416,1431.167,760.536,1431.282,765.623,1432.813z"/>
					</g>
				</g>
				<path style="fill:#40484C;" d="M729.36,1395.501c0,0,8.739-28.903,42.736-8.564c33.997,20.339,127.882,32.115,139.817-39.608
					c11.934-71.723-47.138-69.192-69.135-43.98c-21.997,25.212-31.458,58.489-70.682,56.534
					C732.872,1357.928,729.36,1395.501,729.36,1395.501z"/>
				<path style="fill:#FFFFFF;" d="M844.092,1404.247c-15.875,0-33.178-3.774-51.701-11.297c-1.128-0.459-1.671-1.744-1.212-2.872
					c0.456-1.128,1.74-1.671,2.872-1.214c26.411,10.729,50.146,13.608,70.546,8.563c21.167-5.237,43.447-23.028,45.079-46.9
					c0.083-1.212,1.126-2.114,2.35-2.05c1.214,0.084,2.132,1.137,2.049,2.351c-1.775,25.976-25.702,45.259-48.419,50.879
					C858.804,1403.401,851.608,1404.247,844.092,1404.247z"/>
			</g>
		</g>
		<g>
			<path style="fill:#D3BBA3;" d="M2155.354,2122.105h-625.347c-1.218,0-2.205-0.986-2.205-2.205v-142.204
				c0-1.219,0.987-2.205,2.205-2.205h625.347c1.218,0,2.205,0.986,2.205,2.205v142.204
				C2157.558,2121.119,2156.571,2122.105,2155.354,2122.105z M1532.211,2117.696h620.938v-137.795h-620.938V2117.696z"/>
			<path style="fill:#E2A18D;" d="M1806.002,1812.455c41.199-15.3,94.237-147.597,94.237-147.597l-69.296-36.186l-85.64,163.68
				C1745.304,1792.352,1786.238,1819.795,1806.002,1812.455z"/>
			<g>
				<g>
					<path style="fill:#BC8271;" d="M1853.973,1779.257c0,0-171.966-49.195-205.96-17.115
						c-35.784,33.769-39.964,229.359-39.964,229.359l59.247,12.418l45.751-148.935c0,0,91.354,19.444,128.012,6.603
						C1877.716,1848.745,1853.973,1779.257,1853.973,1779.257z"/>
					<path style="fill:#363E44;" d="M1765.588,1758.896c-0.052,0-0.103-0.002-0.155-0.004c-7.869-0.549-16.513-1.387-25.667-2.274
						c-28.669-2.782-61.164-5.932-76.798-0.409c-1.148,0.398-2.407-0.196-2.813-1.346c-0.406-1.148,0.196-2.407,1.345-2.814
						c16.558-5.844,49.569-2.644,78.693,0.179c9.122,0.885,17.738,1.72,25.546,2.263c1.215,0.086,2.132,1.139,2.047,2.353
						C1767.705,1758.007,1766.736,1758.896,1765.588,1758.896z"/>
					<path style="fill:#84524D;" d="M2030.714,1742.335c0,0,54.517,85.847,24.611,134.831
						c-40.81,66.846-309.671,18.513-309.671,18.513l-2.33-143.911l98.852,5.916l-7.208-20.721L2030.714,1742.335z"/>
					<path style="fill:#E6D0BE;" d="M1534.404,2058.979l163.162-16.866l-22.091-66.814l-69.593,8.524l-38.953,18.317
						C1544.97,2011.207,1531.659,2034.469,1534.404,2058.979L1534.404,2058.979z"/>
				</g>
				<g>
					<path style="fill:#BC8271;" d="M1928.055,1845.461c0,0-157.974-45.265-194.775-16.449
						c-38.74,30.333-60.899,224.708-60.899,224.708l66.804,15.033l49.718-153.151c0,0,89.769,39.61,127.453,30.196
						C1954.039,1936.384,1928.055,1845.461,1928.055,1845.461z"/>
					<path style="fill:#363E44;" d="M1693.842,1928.88c-0.163,0-0.327-0.017-0.493-0.056c-1.186-0.271-1.929-1.451-1.659-2.64
						c12.431-54.462,25.966-87.739,40.229-98.909c14.244-11.151,46.816-13.044,96.807-5.63c1.205,0.179,2.037,1.301,1.858,2.504
						c-0.178,1.206-1.304,2.03-2.504,1.858c-48.068-7.131-80.375-5.488-93.442,4.739c-13.256,10.382-26.62,43.724-38.648,96.42
						C1695.756,1928.189,1694.848,1928.88,1693.842,1928.88z"/>
					<path style="fill:#84524D;" d="M2070.782,1803.116c0,0,30.18,99.586-4.106,145.611c-46.788,62.807-248.668,9.005-248.668,9.005
						l10.922-143.515l97.888,14.987l-6.332-42.203L2070.782,1803.116z"/>
					<path style="fill:#D3BBA3;" d="M1582.797,2096.04l160.649,33.14l-0.906-70.365l-68.922-12.867l-42.664,5.713
						C1607.283,2053.68,1587.574,2071.844,1582.797,2096.04L1582.797,2096.04z"/>
				</g>
			</g>
			<g>
				<g>
					<g>
						<path style="fill:#EFBC73;" d="M1810.787,1654.873c0,0,70.11-117.24,171.927-123.816
							c101.721-6.57,117.154,131.232,117.154,131.232l-7.717,206.151l-219.38-87.09l4.584-89.03L1810.787,1654.873z"/>
					</g>
					<polygon style="fill:#BC8271;" points="2030.416,1744.969 2014.983,1678.824 2099.868,1652.366 2120.814,1764.812 					"/>
					<path style="fill:#363E44;" d="M2005.06,1683.234c-0.946,0-1.821-0.614-2.109-1.568c-0.353-1.165,0.307-2.396,1.472-2.747
						l92.816-28.06c-8.906-36.761-21.359-73.59-50.525-95.959c-0.967-0.743-1.149-2.125-0.408-3.092
						c0.742-0.965,2.128-1.148,3.091-0.409c30.792,23.618,43.486,62.239,52.616,100.455l0.483,2.022l-96.797,29.263
						C2005.486,1683.204,2005.271,1683.234,2005.06,1683.234z"/>
				</g>
				<g>
					<g>
						<polygon style="opacity:0.5;fill:#FFFFFF;" points="1823.991,1564.116 1808.914,1541.931 1698.572,1621.603 
							1727.717,1651.363 						"/>
						<polygon style="fill:#FFFFFF;" points="1855.399,1587.351 1839.52,1544.657 1709.509,1622.818 						"/>
						<polygon style="opacity:0.5;fill:#FFFFFF;" points="1614.988,1573.045 1609.394,1537.725 1710.555,1628.464 						"/>
						<polygon style="fill:#D87355;" points="1696.966,1614.8 1597.752,1547.283 1640.338,1765.805 1732.875,1834.336 
							1740.314,1831.15 						"/>
						<polygon style="fill:#D87355;" points="1923.365,1800.607 1757.143,1839.062 1740.608,1833.177 1698.572,1621.603 
							1876.285,1559.993 						"/>
						<path style="fill:#363E44;" d="M1757.14,1841.266c-1.003,0-1.91-0.689-2.146-1.707c-0.275-1.186,0.464-2.371,1.65-2.646
							l164.147-37.975l-4.374-22.354c-0.234-1.195,0.546-2.353,1.741-2.588c1.191-0.235,2.352,0.547,2.587,1.74l5.192,26.54
							l-168.298,38.935C1757.472,1841.249,1757.305,1841.266,1757.14,1841.266z"/>
						<polygon style="fill:#B77250;" points="1711.664,1617.608 1757.274,1839.662 1731.197,1833.92 1687.037,1613.312 						"/>
						<path style="fill:#363E44;" d="M1756.253,1839.118c-1.027,0-1.946-0.721-2.158-1.766l-44.975-221.188l148.448-52.013
							c1.147-0.411,2.405,0.202,2.81,1.35c0.403,1.15-0.202,2.407-1.352,2.81l-144.818,50.743l44.208,217.42
							c0.242,1.193-0.529,2.358-1.721,2.599C1756.546,1839.103,1756.398,1839.118,1756.253,1839.118z"/>
						<path style="fill:#363E44;" d="M1711.752,1741.89c-1.044,0-1.972-0.745-2.167-1.809l-22.674-123.928l-85.908-63.714
							l30.089,154.393c0.234,1.195-0.547,2.353-1.742,2.586c-1.205,0.228-2.354-0.547-2.586-1.742l-31.419-161.217l2.62-1.707
							l1.319,0.922l91.651,67.973l22.988,125.642c0.219,1.197-0.575,2.345-1.772,2.564
							C1712.017,1741.88,1711.883,1741.89,1711.752,1741.89z"/>
						<path style="fill:#363E44;" d="M1711.666,1619.813c-0.126,0-0.253-0.011-0.381-0.032l-24.627-4.298
							c-1.199-0.209-2.002-1.352-1.794-2.552c0.21-1.202,1.359-1.987,2.552-1.794l24.627,4.298c1.199,0.209,2.002,1.352,1.792,2.552
							C1713.649,1619.06,1712.718,1619.813,1711.666,1619.813z"/>
					</g>
					<g>
						<path style="fill:#BC8271;" d="M2120.728,1775.723c-2.487,23.507-24.704,39.822-48.062,36.192
							c-53.815-8.363-149.171-23.513-155.757-24.428c-15.079-2.095-95.709-15.438-95.045-27.282
							c0.317-5.659,15.967-3.791,21.239-3.005c-3.945-2.734-20.233-11.591-18.244-17.626c2.337-7.09,23.361,0.493,23.763,0.405
							c-4.288-2.37-21.751-11.118-20.436-15.7c1.711-5.962,20.398-2.696,25.947-1.459c-0.413-0.887-17.659-10.365-16.459-13.971
							c1.328-3.996,18.826-1.367,25.854-0.97c13.399,1.851,65.951,4.766,91.437,7.172c70.034,6.614,145.912,17.308,160.391,33.957
							C2120.44,1754.855,2121.864,1764.985,2120.728,1775.723z"/>
						<path style="fill:#363E44;" d="M2085.415,1816.092c-0.112,0-0.225-0.009-0.339-0.026c-10.597-1.632-24.01-3.723-38.624-6.011
							c-1.203-0.189-2.025-1.318-1.837-2.519c0.188-1.204,1.328-2.017,2.519-1.839c14.61,2.289,28.019,4.379,38.613,6.012
							c1.204,0.185,2.028,1.311,1.843,2.515C2087.423,1815.313,2086.484,1816.092,2085.415,1816.092z"/>
						<path style="fill:#363E44;" d="M1872.141,1729.938c-0.192,0-0.388-0.024-0.581-0.078l-18.007-4.913
							c-1.175-0.321-1.868-1.533-1.547-2.709c0.322-1.171,1.537-1.869,2.708-1.546l18.007,4.913
							c1.175,0.321,1.868,1.533,1.547,2.709C1873.999,1729.295,1873.111,1729.938,1872.141,1729.938z"/>
						<path style="fill:#363E44;" d="M1862.585,1746.515c-0.207,0-0.417-0.028-0.624-0.09l-15.871-4.677
							c-1.168-0.344-1.836-1.57-1.491-2.737c0.344-1.167,1.575-1.837,2.738-1.492l15.871,4.677c1.168,0.345,1.836,1.57,1.491,2.737
							C1864.416,1745.893,1863.538,1746.515,1862.585,1746.515z"/>
						<path style="fill:#363E44;" d="M1858.785,1764.998c-0.245,0-0.495-0.041-0.741-0.127l-15.681-5.592
							c-1.146-0.409-1.745-1.671-1.336-2.818c0.409-1.148,1.663-1.742,2.817-1.337l15.681,5.592
							c1.147,0.409,1.745,1.671,1.336,2.818C1860.54,1764.436,1859.69,1764.998,1858.785,1764.998z"/>
					</g>
				</g>
			</g>
			<g>
				<path style="fill:#BC8271;" d="M1962.067,1586.222c25.355,1.102,45.199-26.74,45.199-46.301l-0.168-70.043
					c0-19.562-15.858-35.419-35.419-35.419l0,0c-19.562,0-35.419,15.858-35.419,35.419v85.381
					C1938.916,1581.812,1962.067,1586.222,1962.067,1586.222z"/>
				<path style="fill:#BC8271;" d="M1936.704,1339.608c-4.157,0.116-43.95,1.804-64.548,30.583
					c-15.327,21.414-14.444,46.404-6.372,88.042c9.505,49.035,22.323,77.003,38.327,84.966
					c25.287,12.581,91.259-30.439,112.398-76.828c15.258-33.485,8.21-73.37-15.663-101.762
					C1977.038,1336.295,1939.357,1339.534,1936.704,1339.608z"/>
				<path style="fill:#363E44;" d="M1952.735,1536.937c-0.766,0-1.51-0.398-1.917-1.111c-0.603-1.059-0.236-2.405,0.823-3.008
					c13.207-7.538,26.152-17.608,37.432-29.119c0.853-0.868,2.25-0.885,3.118-0.03c0.87,0.853,0.884,2.248,0.032,3.118
					c-11.563,11.797-24.84,22.124-38.397,29.86C1953.481,1536.844,1953.105,1536.937,1952.735,1536.937z"/>
				<path style="fill:#363E44;" d="M2038.172,1362.369c-24.96-31.534-67.492-30.923-73.794-30.735
					c-30.871-11.661-65.583-6.132-90.811,14.573c-36.777,30.184-33.208,76.048-32.851,79.777c18.437-5.441,44.264-9.517,62.342-8.47
					l14.013-31.084l-0.973,32.877c14.121,2.906,31.374,8.935,38.833,15.504c0.789-1.263,8.03-9.909,17.722-10.358
					c11.749-0.544,20.796,9.632,21.714,20.884c1.273,15.591-7.088,29.29-8.973,31.928c24.059,8.184,37.969,2.385,43.189-0.399
					C2059.947,1460.144,2066.551,1398.225,2038.172,1362.369z"/>
				<path style="fill:#363E44;" d="M1979.646,1462.791c-0.402,0-0.807-0.11-1.172-0.338c-1.03-0.65-1.34-2.011-0.691-3.04
					c4.047-6.429,2.597-13.582-1.295-16.226c-3.527-2.399-8.509-0.633-9.064-0.422c-1.14,0.422-2.411-0.148-2.84-1.29
					c-0.428-1.139,0.149-2.411,1.288-2.84c1.266-0.472,7.844-2.663,13.094,0.904c5.57,3.785,8.128,13.358,2.548,22.22
					C1981.095,1462.427,1980.378,1462.791,1979.646,1462.791z"/>
				<path style="fill:#363E44;" d="M1880.281,1489.374c-0.378,0-0.761-0.097-1.111-0.301c-4.16-2.433-6.265-5.058-6.437-8.029
					c-0.124-2.175,0.857-3.671,1.805-5.12c0.593-0.904,1.206-1.841,1.696-3.111c0.876-2.276,1.044-4.86,0.5-7.682
					c-0.23-1.195,0.551-2.351,1.747-2.582c1.192-0.243,2.351,0.549,2.583,1.746c0.704,3.645,0.464,7.045-0.715,10.103
					c-0.658,1.71-1.47,2.948-2.122,3.944c-0.785,1.197-1.13,1.757-1.09,2.45c0.076,1.322,1.589,2.913,4.26,4.474
					c1.051,0.614,1.405,1.966,0.79,3.017C1881.776,1488.984,1881.038,1489.374,1880.281,1489.374z"/>
				<path style="fill:#363E44;" d="M1900.579,1504.388c-1.163,0-2.136-0.911-2.199-2.086c-0.066-1.214,0.867-2.254,2.083-2.321
					c3.142-0.168,6.233-1.051,8.936-2.549c5.023-2.78,7.62-7.034,8.72-9.323c0.531-1.096,1.846-1.559,2.943-1.031
					s1.559,1.845,1.031,2.943c-1.328,2.76-4.466,7.896-10.558,11.27c-3.282,1.819-7.029,2.89-10.836,3.096
					C1900.66,1504.388,1900.619,1504.388,1900.579,1504.388z"/>
				<g>
					<path style="fill:#FFFFFF;" d="M1938.46,1438.503c0,0-10.76-2.371-21.897,1.409c-2.369,0.804,7.907,20.3,9.828,18.346
						C1934.834,1449.67,1938.46,1438.503,1938.46,1438.503z"/>
					<path style="fill:#363E44;" d="M1919.867,1463.555c-13.13,8.227-28.956,4.739-28.956,4.739s5.463-16.826,18.593-25.052
						c2.299-1.441,4.68-2.505,7.046-3.309c6.117,3.915,9.662,10.952,9.848,18.314
						C1924.475,1460.204,1922.304,1462.028,1919.867,1463.555z"/>
				</g>
			</g>
		</g>
	</g>
</g>
</svg>
